G75*
%MOIN*%
%OFA0B0*%
%FSLAX25Y25*%
%IPPOS*%
%LPD*%
%AMOC8*
5,1,8,0,0,1.08239X$1,22.5*
%
%ADD10C,0.00000*%
%ADD11OC8,0.05200*%
%ADD12C,0.05200*%
%ADD13C,0.05150*%
%ADD14C,0.11220*%
%ADD15C,0.07400*%
%ADD16C,0.05200*%
%ADD17C,0.05937*%
%ADD18C,0.01600*%
%ADD19C,0.03169*%
D10*
X0001800Y0001800D02*
X0001800Y0198650D01*
X0198650Y0198650D01*
X0198650Y0001800D01*
X0001800Y0001800D01*
D11*
X0006800Y0011800D03*
X0006800Y0029300D03*
X0046800Y0029300D03*
X0056800Y0029300D03*
X0066800Y0029300D03*
X0066800Y0011800D03*
X0056800Y0011800D03*
X0046800Y0011800D03*
X0056800Y0046800D03*
X0066800Y0046800D03*
X0046800Y0056800D03*
X0046800Y0096800D03*
X0096800Y0024300D03*
X0106800Y0024300D03*
X0106800Y0011800D03*
X0096800Y0011800D03*
X0126800Y0006800D03*
X0144300Y0011800D03*
X0151800Y0016800D03*
X0144300Y0021800D03*
X0134300Y0106800D03*
X0126800Y0156800D03*
X0126800Y0166800D03*
X0121800Y0186800D03*
X0081800Y0186800D03*
D12*
X0134300Y0086800D03*
X0126800Y0026800D03*
D13*
X0161721Y0038001D03*
X0166446Y0041150D03*
X0161721Y0044300D03*
X0166446Y0047450D03*
X0161721Y0050599D03*
X0168926Y0011800D03*
X0176800Y0011800D03*
X0184674Y0011800D03*
D14*
X0181800Y0029930D03*
X0181800Y0058670D03*
D15*
X0193800Y0066800D03*
X0193800Y0076800D03*
X0193800Y0086800D03*
X0193800Y0096800D03*
X0193800Y0106800D03*
X0193800Y0116800D03*
X0193800Y0126800D03*
X0193800Y0136800D03*
X0074300Y0094300D03*
X0074300Y0084300D03*
X0074300Y0074300D03*
X0006800Y0076800D03*
X0006800Y0066800D03*
X0006800Y0086800D03*
X0006800Y0096800D03*
X0006800Y0106800D03*
X0006800Y0116800D03*
X0006800Y0126800D03*
X0006800Y0136800D03*
X0006800Y0146800D03*
X0006800Y0156800D03*
X0006800Y0166800D03*
X0006800Y0176800D03*
X0006800Y0186800D03*
X0031800Y0186643D03*
X0031800Y0166957D03*
X0061800Y0166957D03*
X0061800Y0186643D03*
D16*
X0084200Y0166800D02*
X0089400Y0166800D01*
X0089400Y0156800D02*
X0084200Y0156800D01*
X0084200Y0146800D02*
X0089400Y0146800D01*
X0089400Y0136800D02*
X0084200Y0136800D01*
X0084200Y0126800D02*
X0089400Y0126800D01*
X0089400Y0116800D02*
X0084200Y0116800D01*
X0084200Y0106800D02*
X0089400Y0106800D01*
X0089400Y0096800D02*
X0084200Y0096800D01*
X0084200Y0086800D02*
X0089400Y0086800D01*
X0089400Y0076800D02*
X0084200Y0076800D01*
X0084200Y0066800D02*
X0089400Y0066800D01*
X0089400Y0056800D02*
X0084200Y0056800D01*
X0084200Y0046800D02*
X0089400Y0046800D01*
X0089400Y0036800D02*
X0084200Y0036800D01*
X0114200Y0036800D02*
X0119400Y0036800D01*
X0119400Y0046800D02*
X0114200Y0046800D01*
X0114200Y0056800D02*
X0119400Y0056800D01*
X0119400Y0066800D02*
X0114200Y0066800D01*
X0114200Y0076800D02*
X0119400Y0076800D01*
X0119400Y0086800D02*
X0114200Y0086800D01*
X0114200Y0096800D02*
X0119400Y0096800D01*
X0119400Y0106800D02*
X0114200Y0106800D01*
X0114200Y0116800D02*
X0119400Y0116800D01*
X0119400Y0126800D02*
X0114200Y0126800D01*
X0114200Y0136800D02*
X0119400Y0136800D01*
X0119400Y0146800D02*
X0114200Y0146800D01*
X0114200Y0156800D02*
X0119400Y0156800D01*
X0119400Y0166800D02*
X0114200Y0166800D01*
D17*
X0161052Y0011800D03*
X0192548Y0011800D03*
D18*
X0189127Y0008194D02*
X0187538Y0008194D01*
X0187265Y0007922D02*
X0188334Y0008990D01*
X0188336Y0008986D01*
X0189734Y0007588D01*
X0191560Y0006831D01*
X0193536Y0006831D01*
X0195362Y0007588D01*
X0196650Y0008876D01*
X0196650Y0003800D01*
X0130023Y0003800D01*
X0131200Y0004977D01*
X0131200Y0006800D01*
X0131200Y0008623D01*
X0128623Y0011200D01*
X0126800Y0011200D01*
X0126800Y0006800D01*
X0126800Y0006800D01*
X0131200Y0006800D01*
X0126800Y0006800D01*
X0126800Y0006800D01*
X0126800Y0006800D01*
X0122400Y0006800D01*
X0122400Y0008623D01*
X0124977Y0011200D01*
X0126800Y0011200D01*
X0126800Y0006800D01*
X0122400Y0006800D01*
X0122400Y0004977D01*
X0123577Y0003800D01*
X0003800Y0003800D01*
X0003800Y0008577D01*
X0004977Y0007400D01*
X0006800Y0007400D01*
X0008623Y0007400D01*
X0011200Y0009977D01*
X0011200Y0011800D01*
X0011200Y0013623D01*
X0008623Y0016200D01*
X0006800Y0016200D01*
X0006800Y0011800D01*
X0006800Y0011800D01*
X0011200Y0011800D01*
X0006800Y0011800D01*
X0006800Y0011800D01*
X0006800Y0016200D01*
X0004977Y0016200D01*
X0003800Y0015023D01*
X0003800Y0026077D01*
X0004977Y0024900D01*
X0006800Y0024900D01*
X0008623Y0024900D01*
X0011200Y0027477D01*
X0011200Y0029300D01*
X0011200Y0031123D01*
X0008623Y0033700D01*
X0006800Y0033700D01*
X0006800Y0029300D01*
X0006800Y0029300D01*
X0011200Y0029300D01*
X0006800Y0029300D01*
X0006800Y0029300D01*
X0006800Y0033700D01*
X0004977Y0033700D01*
X0003800Y0032523D01*
X0003800Y0062181D01*
X0003917Y0062096D01*
X0004689Y0061703D01*
X0005512Y0061435D01*
X0006367Y0061300D01*
X0006600Y0061300D01*
X0006600Y0066600D01*
X0007000Y0066600D01*
X0007000Y0067000D01*
X0012300Y0067000D01*
X0012300Y0067233D01*
X0012165Y0068088D01*
X0011897Y0068911D01*
X0011504Y0069683D01*
X0010995Y0070383D01*
X0010383Y0070995D01*
X0009683Y0071504D01*
X0009336Y0071681D01*
X0010029Y0071968D01*
X0011632Y0073571D01*
X0012500Y0075666D01*
X0012500Y0077934D01*
X0011632Y0080029D01*
X0010029Y0081632D01*
X0009624Y0081800D01*
X0010029Y0081968D01*
X0011632Y0083571D01*
X0011810Y0084000D01*
X0040640Y0084000D01*
X0069000Y0055640D01*
X0069000Y0051105D01*
X0068705Y0051400D01*
X0064895Y0051400D01*
X0062200Y0048705D01*
X0062200Y0044895D01*
X0064895Y0042200D01*
X0068705Y0042200D01*
X0069000Y0042495D01*
X0069000Y0035460D01*
X0067440Y0033900D01*
X0064895Y0033900D01*
X0062200Y0031205D01*
X0062200Y0027395D01*
X0064895Y0024700D01*
X0068705Y0024700D01*
X0071400Y0027395D01*
X0071400Y0029940D01*
X0073386Y0031926D01*
X0074000Y0032540D01*
X0074000Y0022960D01*
X0067440Y0016400D01*
X0064895Y0016400D01*
X0062200Y0013705D01*
X0062200Y0009895D01*
X0064895Y0007200D01*
X0068705Y0007200D01*
X0071400Y0009895D01*
X0071400Y0012440D01*
X0079174Y0020214D01*
X0079600Y0021243D01*
X0079600Y0040640D01*
X0081782Y0042822D01*
X0083285Y0042200D01*
X0090315Y0042200D01*
X0092006Y0042900D01*
X0093105Y0044000D01*
X0097357Y0044000D01*
X0098386Y0044426D01*
X0103386Y0049426D01*
X0104174Y0050214D01*
X0104600Y0051243D01*
X0104600Y0110640D01*
X0107960Y0114000D01*
X0110495Y0114000D01*
X0111594Y0112900D01*
X0113285Y0112200D01*
X0120315Y0112200D01*
X0122006Y0112900D01*
X0123300Y0114194D01*
X0124000Y0115885D01*
X0124000Y0117715D01*
X0123300Y0119406D01*
X0122006Y0120700D01*
X0120315Y0121400D01*
X0113285Y0121400D01*
X0111594Y0120700D01*
X0110495Y0119600D01*
X0107960Y0119600D01*
X0104600Y0122960D01*
X0104600Y0160640D01*
X0107960Y0164000D01*
X0110495Y0164000D01*
X0111594Y0162900D01*
X0113285Y0162200D01*
X0120315Y0162200D01*
X0122006Y0162900D01*
X0123100Y0163995D01*
X0124895Y0162200D01*
X0128705Y0162200D01*
X0131400Y0164895D01*
X0131400Y0168705D01*
X0129600Y0170505D01*
X0129600Y0182357D01*
X0129174Y0183386D01*
X0126400Y0186160D01*
X0126400Y0188705D01*
X0123705Y0191400D01*
X0119895Y0191400D01*
X0117200Y0188705D01*
X0117200Y0184895D01*
X0119895Y0182200D01*
X0122440Y0182200D01*
X0124000Y0180640D01*
X0124000Y0170505D01*
X0123100Y0169605D01*
X0122006Y0170700D01*
X0120315Y0171400D01*
X0113285Y0171400D01*
X0111594Y0170700D01*
X0110495Y0169600D01*
X0106243Y0169600D01*
X0105214Y0169174D01*
X0104426Y0168386D01*
X0099426Y0163386D01*
X0099000Y0162357D01*
X0099000Y0159669D01*
X0098830Y0159839D01*
X0097513Y0160384D01*
X0096087Y0160384D01*
X0094770Y0159839D01*
X0093761Y0158830D01*
X0093650Y0158561D01*
X0093300Y0159406D01*
X0092006Y0160700D01*
X0090315Y0161400D01*
X0083285Y0161400D01*
X0081594Y0160700D01*
X0080300Y0159406D01*
X0079600Y0157715D01*
X0079600Y0155885D01*
X0080300Y0154194D01*
X0081594Y0152900D01*
X0083285Y0152200D01*
X0090315Y0152200D01*
X0092006Y0152900D01*
X0093300Y0154194D01*
X0093650Y0155039D01*
X0093761Y0154770D01*
X0094000Y0154531D01*
X0094000Y0109069D01*
X0093761Y0108830D01*
X0093650Y0108561D01*
X0093300Y0109406D01*
X0092006Y0110700D01*
X0090315Y0111400D01*
X0083285Y0111400D01*
X0081594Y0110700D01*
X0080300Y0109406D01*
X0079600Y0107715D01*
X0079600Y0105885D01*
X0080300Y0104194D01*
X0081594Y0102900D01*
X0083285Y0102200D01*
X0090315Y0102200D01*
X0092006Y0102900D01*
X0093300Y0104194D01*
X0093650Y0105039D01*
X0093761Y0104770D01*
X0094770Y0103761D01*
X0096087Y0103216D01*
X0097513Y0103216D01*
X0098830Y0103761D01*
X0099000Y0103931D01*
X0099000Y0052960D01*
X0095640Y0049600D01*
X0093105Y0049600D01*
X0092006Y0050700D01*
X0090315Y0051400D01*
X0083285Y0051400D01*
X0081594Y0050700D01*
X0080300Y0049406D01*
X0080197Y0049157D01*
X0075214Y0044174D01*
X0074600Y0043560D01*
X0074600Y0054000D01*
X0080495Y0054000D01*
X0081594Y0052900D01*
X0083285Y0052200D01*
X0090315Y0052200D01*
X0092006Y0052900D01*
X0093300Y0054194D01*
X0094000Y0055885D01*
X0094000Y0057715D01*
X0093300Y0059406D01*
X0092006Y0060700D01*
X0090315Y0061400D01*
X0083285Y0061400D01*
X0081594Y0060700D01*
X0080495Y0059600D01*
X0072960Y0059600D01*
X0043386Y0089174D01*
X0042357Y0089600D01*
X0011810Y0089600D01*
X0011632Y0090029D01*
X0010029Y0091632D01*
X0009624Y0091800D01*
X0010029Y0091968D01*
X0011632Y0093571D01*
X0012500Y0095666D01*
X0012500Y0097934D01*
X0011632Y0100029D01*
X0010029Y0101632D01*
X0009624Y0101800D01*
X0010029Y0101968D01*
X0011632Y0103571D01*
X0012500Y0105666D01*
X0012500Y0107934D01*
X0011632Y0110029D01*
X0010029Y0111632D01*
X0009624Y0111800D01*
X0010029Y0111968D01*
X0011632Y0113571D01*
X0012500Y0115666D01*
X0012500Y0117934D01*
X0011632Y0120029D01*
X0010029Y0121632D01*
X0009624Y0121800D01*
X0010029Y0121968D01*
X0011632Y0123571D01*
X0012500Y0125666D01*
X0012500Y0127934D01*
X0011632Y0130029D01*
X0010029Y0131632D01*
X0009624Y0131800D01*
X0010029Y0131968D01*
X0011632Y0133571D01*
X0012500Y0135666D01*
X0012500Y0137934D01*
X0011632Y0140029D01*
X0010029Y0141632D01*
X0009624Y0141800D01*
X0010029Y0141968D01*
X0011632Y0143571D01*
X0011810Y0144000D01*
X0025640Y0144000D01*
X0044426Y0125214D01*
X0045214Y0124426D01*
X0046243Y0124000D01*
X0080495Y0124000D01*
X0081594Y0122900D01*
X0083285Y0122200D01*
X0090315Y0122200D01*
X0092006Y0122900D01*
X0093300Y0124194D01*
X0094000Y0125885D01*
X0094000Y0127715D01*
X0093300Y0129406D01*
X0092006Y0130700D01*
X0090315Y0131400D01*
X0083285Y0131400D01*
X0081594Y0130700D01*
X0080495Y0129600D01*
X0047960Y0129600D01*
X0028386Y0149174D01*
X0027357Y0149600D01*
X0011810Y0149600D01*
X0011632Y0150029D01*
X0010029Y0151632D01*
X0009624Y0151800D01*
X0010029Y0151968D01*
X0011632Y0153571D01*
X0011810Y0154000D01*
X0025640Y0154000D01*
X0044426Y0135214D01*
X0045214Y0134426D01*
X0046243Y0134000D01*
X0080495Y0134000D01*
X0081594Y0132900D01*
X0083285Y0132200D01*
X0090315Y0132200D01*
X0092006Y0132900D01*
X0093300Y0134194D01*
X0094000Y0135885D01*
X0094000Y0137715D01*
X0093300Y0139406D01*
X0092006Y0140700D01*
X0090315Y0141400D01*
X0083285Y0141400D01*
X0081594Y0140700D01*
X0080495Y0139600D01*
X0047960Y0139600D01*
X0028386Y0159174D01*
X0027357Y0159600D01*
X0011810Y0159600D01*
X0011632Y0160029D01*
X0010029Y0161632D01*
X0009336Y0161919D01*
X0009683Y0162096D01*
X0010383Y0162605D01*
X0010995Y0163217D01*
X0011504Y0163917D01*
X0011897Y0164689D01*
X0012165Y0165512D01*
X0012300Y0166367D01*
X0012300Y0166600D01*
X0007000Y0166600D01*
X0007000Y0167000D01*
X0012300Y0167000D01*
X0012300Y0167233D01*
X0012165Y0168088D01*
X0011897Y0168911D01*
X0011504Y0169683D01*
X0010995Y0170383D01*
X0010383Y0170995D01*
X0009683Y0171504D01*
X0009336Y0171681D01*
X0010029Y0171968D01*
X0011632Y0173571D01*
X0012500Y0175666D01*
X0012500Y0177934D01*
X0011632Y0180029D01*
X0010029Y0181632D01*
X0009624Y0181800D01*
X0010029Y0181968D01*
X0011632Y0183571D01*
X0012500Y0185666D01*
X0012500Y0187934D01*
X0011632Y0190029D01*
X0010029Y0191632D01*
X0007934Y0192500D01*
X0005666Y0192500D01*
X0003800Y0191727D01*
X0003800Y0196650D01*
X0196650Y0196650D01*
X0196650Y0141789D01*
X0194934Y0142500D01*
X0192666Y0142500D01*
X0190571Y0141632D01*
X0188968Y0140029D01*
X0188100Y0137934D01*
X0188100Y0135666D01*
X0188968Y0133571D01*
X0190571Y0131968D01*
X0190976Y0131800D01*
X0190571Y0131632D01*
X0188968Y0130029D01*
X0188100Y0127934D01*
X0188100Y0125666D01*
X0188968Y0123571D01*
X0190571Y0121968D01*
X0190976Y0121800D01*
X0190571Y0121632D01*
X0188968Y0120029D01*
X0188100Y0117934D01*
X0188100Y0115666D01*
X0188968Y0113571D01*
X0190571Y0111968D01*
X0190976Y0111800D01*
X0190571Y0111632D01*
X0188968Y0110029D01*
X0188100Y0107934D01*
X0188100Y0105666D01*
X0188968Y0103571D01*
X0190571Y0101968D01*
X0190976Y0101800D01*
X0190571Y0101632D01*
X0188968Y0100029D01*
X0188100Y0097934D01*
X0188100Y0095666D01*
X0188968Y0093571D01*
X0190571Y0091968D01*
X0190976Y0091800D01*
X0190571Y0091632D01*
X0188968Y0090029D01*
X0188100Y0087934D01*
X0188100Y0085666D01*
X0188968Y0083571D01*
X0190571Y0081968D01*
X0190976Y0081800D01*
X0190571Y0081632D01*
X0188968Y0080029D01*
X0188100Y0077934D01*
X0188100Y0075666D01*
X0188968Y0073571D01*
X0190571Y0071968D01*
X0191264Y0071681D01*
X0190917Y0071504D01*
X0190217Y0070995D01*
X0189605Y0070383D01*
X0189096Y0069683D01*
X0188703Y0068911D01*
X0188435Y0068088D01*
X0188300Y0067233D01*
X0188300Y0067000D01*
X0193600Y0067000D01*
X0193600Y0066600D01*
X0194000Y0066600D01*
X0194000Y0061300D01*
X0194233Y0061300D01*
X0195088Y0061435D01*
X0195911Y0061703D01*
X0196650Y0062080D01*
X0196650Y0014724D01*
X0195362Y0016012D01*
X0193536Y0016768D01*
X0191560Y0016768D01*
X0189734Y0016012D01*
X0188336Y0014614D01*
X0188334Y0014610D01*
X0187265Y0015678D01*
X0185584Y0016375D01*
X0183764Y0016375D01*
X0182083Y0015678D01*
X0180796Y0014391D01*
X0180737Y0014250D01*
X0180678Y0014391D01*
X0179391Y0015678D01*
X0177710Y0016375D01*
X0176185Y0016375D01*
X0164521Y0028039D01*
X0164521Y0034331D01*
X0165600Y0035409D01*
X0166083Y0036576D01*
X0167356Y0036576D01*
X0169037Y0037272D01*
X0170324Y0038559D01*
X0171020Y0040240D01*
X0171020Y0041765D01*
X0174174Y0044919D01*
X0174600Y0045948D01*
X0174600Y0056166D01*
X0175348Y0054359D01*
X0177489Y0052218D01*
X0180286Y0051060D01*
X0183314Y0051060D01*
X0186111Y0052218D01*
X0188252Y0054359D01*
X0189410Y0057156D01*
X0189410Y0060184D01*
X0188252Y0062981D01*
X0186111Y0065122D01*
X0183314Y0066280D01*
X0180286Y0066280D01*
X0177489Y0065122D01*
X0175348Y0062981D01*
X0174600Y0061174D01*
X0174600Y0087357D01*
X0174174Y0088386D01*
X0173386Y0089174D01*
X0158386Y0104174D01*
X0157357Y0104600D01*
X0138323Y0104600D01*
X0138700Y0104977D01*
X0138700Y0106800D01*
X0138700Y0108623D01*
X0136123Y0111200D01*
X0134300Y0111200D01*
X0134300Y0106800D01*
X0134300Y0106800D01*
X0138700Y0106800D01*
X0134300Y0106800D01*
X0134300Y0106800D01*
X0134300Y0106800D01*
X0129900Y0106800D01*
X0129900Y0108623D01*
X0132477Y0111200D01*
X0134300Y0111200D01*
X0134300Y0106800D01*
X0129900Y0106800D01*
X0129900Y0104977D01*
X0130277Y0104600D01*
X0127960Y0104600D01*
X0123403Y0109157D01*
X0123300Y0109406D01*
X0122006Y0110700D01*
X0120315Y0111400D01*
X0113285Y0111400D01*
X0111594Y0110700D01*
X0110300Y0109406D01*
X0109600Y0107715D01*
X0109600Y0105885D01*
X0110300Y0104194D01*
X0111594Y0102900D01*
X0113285Y0102200D01*
X0120315Y0102200D01*
X0121818Y0102822D01*
X0124426Y0100214D01*
X0125214Y0099426D01*
X0126243Y0099000D01*
X0155640Y0099000D01*
X0169000Y0085640D01*
X0169000Y0051343D01*
X0167356Y0052024D01*
X0165858Y0052024D01*
X0165776Y0052279D01*
X0165463Y0052892D01*
X0165058Y0053449D01*
X0164571Y0053936D01*
X0164014Y0054341D01*
X0163401Y0054653D01*
X0162746Y0054866D01*
X0162066Y0054974D01*
X0161721Y0054974D01*
X0161377Y0054974D01*
X0160697Y0054866D01*
X0160042Y0054653D01*
X0159600Y0054428D01*
X0159600Y0087357D01*
X0159174Y0088386D01*
X0153386Y0094174D01*
X0152357Y0094600D01*
X0127960Y0094600D01*
X0123403Y0099157D01*
X0123300Y0099406D01*
X0122006Y0100700D01*
X0120315Y0101400D01*
X0113285Y0101400D01*
X0111594Y0100700D01*
X0110300Y0099406D01*
X0109600Y0097715D01*
X0109600Y0095885D01*
X0110300Y0094194D01*
X0111594Y0092900D01*
X0113285Y0092200D01*
X0120315Y0092200D01*
X0121818Y0092822D01*
X0124426Y0090214D01*
X0125214Y0089426D01*
X0126243Y0089000D01*
X0130232Y0089000D01*
X0129700Y0087715D01*
X0129700Y0085885D01*
X0130400Y0084194D01*
X0131694Y0082900D01*
X0133385Y0082200D01*
X0135215Y0082200D01*
X0136906Y0082900D01*
X0138200Y0084194D01*
X0138900Y0085885D01*
X0138900Y0087715D01*
X0138368Y0089000D01*
X0150640Y0089000D01*
X0154000Y0085640D01*
X0154000Y0046243D01*
X0154426Y0045214D01*
X0156926Y0042714D01*
X0157714Y0041926D01*
X0157761Y0041907D01*
X0157843Y0041709D01*
X0158401Y0041150D01*
X0157843Y0040592D01*
X0157146Y0038911D01*
X0157146Y0037091D01*
X0157843Y0035409D01*
X0158921Y0034331D01*
X0158921Y0026322D01*
X0159348Y0025293D01*
X0168265Y0016375D01*
X0168016Y0016375D01*
X0166335Y0015678D01*
X0165266Y0014610D01*
X0165264Y0014614D01*
X0163866Y0016012D01*
X0162040Y0016768D01*
X0160064Y0016768D01*
X0158238Y0016012D01*
X0156840Y0014614D01*
X0156083Y0012788D01*
X0156083Y0010812D01*
X0156840Y0008986D01*
X0158238Y0007588D01*
X0160064Y0006831D01*
X0162040Y0006831D01*
X0163866Y0007588D01*
X0165264Y0008986D01*
X0165266Y0008990D01*
X0166335Y0007922D01*
X0168016Y0007225D01*
X0169836Y0007225D01*
X0171517Y0007922D01*
X0172804Y0009209D01*
X0172863Y0009350D01*
X0172922Y0009209D01*
X0174209Y0007922D01*
X0175890Y0007225D01*
X0177710Y0007225D01*
X0179391Y0007922D01*
X0180678Y0009209D01*
X0180737Y0009350D01*
X0180796Y0009209D01*
X0182083Y0007922D01*
X0183764Y0007225D01*
X0185584Y0007225D01*
X0187265Y0007922D01*
X0181810Y0008194D02*
X0179664Y0008194D01*
X0176800Y0011800D02*
X0161721Y0026879D01*
X0161721Y0038001D01*
X0157666Y0040164D02*
X0139600Y0040164D01*
X0139600Y0039069D02*
X0139600Y0044531D01*
X0139839Y0044770D01*
X0140384Y0046087D01*
X0140384Y0047513D01*
X0139839Y0048830D01*
X0138830Y0049839D01*
X0137513Y0050384D01*
X0136087Y0050384D01*
X0134770Y0049839D01*
X0133761Y0048830D01*
X0133216Y0047513D01*
X0133216Y0046087D01*
X0133761Y0044770D01*
X0134000Y0044531D01*
X0134000Y0039069D01*
X0133761Y0038830D01*
X0133216Y0037513D01*
X0133216Y0036087D01*
X0133761Y0034770D01*
X0134770Y0033761D01*
X0136087Y0033216D01*
X0137513Y0033216D01*
X0138830Y0033761D01*
X0139839Y0034770D01*
X0140384Y0036087D01*
X0140384Y0037513D01*
X0139839Y0038830D01*
X0139600Y0039069D01*
X0139948Y0038566D02*
X0157146Y0038566D01*
X0157198Y0036967D02*
X0140384Y0036967D01*
X0140087Y0035369D02*
X0157884Y0035369D01*
X0158921Y0033770D02*
X0138839Y0033770D01*
X0136800Y0036800D02*
X0136800Y0046800D01*
X0140118Y0048157D02*
X0154000Y0048157D01*
X0154000Y0049755D02*
X0138914Y0049755D01*
X0140384Y0046558D02*
X0154000Y0046558D01*
X0154680Y0044960D02*
X0139917Y0044960D01*
X0139600Y0043361D02*
X0156279Y0043361D01*
X0157820Y0041763D02*
X0139600Y0041763D01*
X0134000Y0041763D02*
X0080723Y0041763D01*
X0081594Y0040700D02*
X0080300Y0039406D01*
X0079600Y0037715D01*
X0079600Y0035885D01*
X0080300Y0034194D01*
X0081594Y0032900D01*
X0083285Y0032200D01*
X0090315Y0032200D01*
X0092006Y0032900D01*
X0093300Y0034194D01*
X0094000Y0035885D01*
X0094000Y0037715D01*
X0093300Y0039406D01*
X0092006Y0040700D01*
X0090315Y0041400D01*
X0083285Y0041400D01*
X0081594Y0040700D01*
X0081059Y0040164D02*
X0079600Y0040164D01*
X0079600Y0038566D02*
X0079952Y0038566D01*
X0079600Y0036967D02*
X0079600Y0036967D01*
X0079600Y0035369D02*
X0079814Y0035369D01*
X0079600Y0033770D02*
X0080724Y0033770D01*
X0079600Y0032172D02*
X0158921Y0032172D01*
X0158921Y0030573D02*
X0129532Y0030573D01*
X0129406Y0030700D02*
X0127715Y0031400D01*
X0125885Y0031400D01*
X0124194Y0030700D01*
X0122900Y0029406D01*
X0122200Y0027715D01*
X0122200Y0025885D01*
X0122900Y0024194D01*
X0124000Y0023095D01*
X0124000Y0021243D01*
X0124426Y0020214D01*
X0134426Y0010214D01*
X0135214Y0009426D01*
X0136243Y0009000D01*
X0140595Y0009000D01*
X0142395Y0007200D01*
X0146205Y0007200D01*
X0148900Y0009895D01*
X0148900Y0013195D01*
X0149895Y0012200D01*
X0153705Y0012200D01*
X0156400Y0014895D01*
X0156400Y0018705D01*
X0153705Y0021400D01*
X0149895Y0021400D01*
X0148700Y0020205D01*
X0148700Y0021800D01*
X0148700Y0023623D01*
X0146123Y0026200D01*
X0144300Y0026200D01*
X0144300Y0021800D01*
X0144300Y0021800D01*
X0148700Y0021800D01*
X0144300Y0021800D01*
X0144300Y0021800D01*
X0144300Y0017400D01*
X0146123Y0017400D01*
X0147200Y0018477D01*
X0147200Y0015405D01*
X0146205Y0016400D01*
X0142395Y0016400D01*
X0140595Y0014600D01*
X0137960Y0014600D01*
X0129600Y0022960D01*
X0129600Y0023095D01*
X0130700Y0024194D01*
X0131400Y0025885D01*
X0131400Y0027715D01*
X0130700Y0029406D01*
X0129406Y0030700D01*
X0130878Y0028975D02*
X0158921Y0028975D01*
X0158921Y0027376D02*
X0131400Y0027376D01*
X0131356Y0025778D02*
X0142055Y0025778D01*
X0142477Y0026200D02*
X0139900Y0023623D01*
X0139900Y0021800D01*
X0144300Y0021800D01*
X0144300Y0021800D01*
X0144300Y0021800D01*
X0144300Y0026200D01*
X0142477Y0026200D01*
X0144300Y0025778D02*
X0144300Y0025778D01*
X0144300Y0024179D02*
X0144300Y0024179D01*
X0144300Y0022581D02*
X0144300Y0022581D01*
X0144300Y0021800D02*
X0139900Y0021800D01*
X0139900Y0019977D01*
X0142477Y0017400D01*
X0144300Y0017400D01*
X0144300Y0021800D01*
X0144300Y0020982D02*
X0144300Y0020982D01*
X0144300Y0019384D02*
X0144300Y0019384D01*
X0144300Y0017785D02*
X0144300Y0017785D01*
X0146508Y0017785D02*
X0147200Y0017785D01*
X0147200Y0016187D02*
X0146419Y0016187D01*
X0148900Y0012990D02*
X0149105Y0012990D01*
X0148900Y0011391D02*
X0156083Y0011391D01*
X0156167Y0012990D02*
X0154495Y0012990D01*
X0156093Y0014588D02*
X0156829Y0014588D01*
X0156400Y0016187D02*
X0158659Y0016187D01*
X0156400Y0017785D02*
X0166855Y0017785D01*
X0167562Y0016187D02*
X0163445Y0016187D01*
X0165257Y0019384D02*
X0155722Y0019384D01*
X0154123Y0020982D02*
X0163658Y0020982D01*
X0162060Y0022581D02*
X0148700Y0022581D01*
X0148700Y0020982D02*
X0149477Y0020982D01*
X0148143Y0024179D02*
X0160461Y0024179D01*
X0159147Y0025778D02*
X0146545Y0025778D01*
X0140457Y0024179D02*
X0130685Y0024179D01*
X0129979Y0022581D02*
X0139900Y0022581D01*
X0139900Y0020982D02*
X0131578Y0020982D01*
X0133176Y0019384D02*
X0140494Y0019384D01*
X0142092Y0017785D02*
X0134775Y0017785D01*
X0136373Y0016187D02*
X0142181Y0016187D01*
X0144300Y0011800D02*
X0136800Y0011800D01*
X0126800Y0021800D01*
X0126800Y0026800D01*
X0122722Y0028975D02*
X0079600Y0028975D01*
X0079600Y0030573D02*
X0124068Y0030573D01*
X0122006Y0032900D02*
X0123300Y0034194D01*
X0124000Y0035885D01*
X0124000Y0037715D01*
X0123300Y0039406D01*
X0122006Y0040700D01*
X0120315Y0041400D01*
X0113285Y0041400D01*
X0111594Y0040700D01*
X0110300Y0039406D01*
X0109600Y0037715D01*
X0109600Y0035885D01*
X0110300Y0034194D01*
X0111594Y0032900D01*
X0113285Y0032200D01*
X0120315Y0032200D01*
X0122006Y0032900D01*
X0122876Y0033770D02*
X0134761Y0033770D01*
X0133513Y0035369D02*
X0123786Y0035369D01*
X0124000Y0036967D02*
X0133216Y0036967D01*
X0133652Y0038566D02*
X0123648Y0038566D01*
X0122541Y0040164D02*
X0134000Y0040164D01*
X0134000Y0043361D02*
X0122467Y0043361D01*
X0122006Y0042900D02*
X0123300Y0044194D01*
X0124000Y0045885D01*
X0124000Y0047715D01*
X0123300Y0049406D01*
X0122006Y0050700D01*
X0120315Y0051400D01*
X0113285Y0051400D01*
X0111594Y0050700D01*
X0110300Y0049406D01*
X0109600Y0047715D01*
X0109600Y0045885D01*
X0110300Y0044194D01*
X0111594Y0042900D01*
X0113285Y0042200D01*
X0120315Y0042200D01*
X0122006Y0042900D01*
X0123617Y0044960D02*
X0133683Y0044960D01*
X0133216Y0046558D02*
X0124000Y0046558D01*
X0123817Y0048157D02*
X0133482Y0048157D01*
X0134686Y0049755D02*
X0122950Y0049755D01*
X0120426Y0051354D02*
X0154000Y0051354D01*
X0154000Y0052952D02*
X0122058Y0052952D01*
X0122006Y0052900D02*
X0123300Y0054194D01*
X0124000Y0055885D01*
X0124000Y0057715D01*
X0123300Y0059406D01*
X0122006Y0060700D01*
X0120315Y0061400D01*
X0113285Y0061400D01*
X0111594Y0060700D01*
X0110300Y0059406D01*
X0109600Y0057715D01*
X0109600Y0055885D01*
X0110300Y0054194D01*
X0111594Y0052900D01*
X0113285Y0052200D01*
X0120315Y0052200D01*
X0122006Y0052900D01*
X0123447Y0054551D02*
X0154000Y0054551D01*
X0154000Y0056149D02*
X0124000Y0056149D01*
X0123986Y0057748D02*
X0154000Y0057748D01*
X0154000Y0059346D02*
X0123324Y0059346D01*
X0121414Y0060945D02*
X0154000Y0060945D01*
X0154000Y0062543D02*
X0121144Y0062543D01*
X0120315Y0062200D02*
X0122006Y0062900D01*
X0123300Y0064194D01*
X0124000Y0065885D01*
X0124000Y0067715D01*
X0123300Y0069406D01*
X0122006Y0070700D01*
X0120315Y0071400D01*
X0113285Y0071400D01*
X0111594Y0070700D01*
X0110300Y0069406D01*
X0109600Y0067715D01*
X0109600Y0065885D01*
X0110300Y0064194D01*
X0111594Y0062900D01*
X0113285Y0062200D01*
X0120315Y0062200D01*
X0123247Y0064142D02*
X0154000Y0064142D01*
X0154000Y0065740D02*
X0123940Y0065740D01*
X0124000Y0067339D02*
X0154000Y0067339D01*
X0154000Y0068937D02*
X0123494Y0068937D01*
X0122169Y0070536D02*
X0154000Y0070536D01*
X0154000Y0072134D02*
X0104600Y0072134D01*
X0104600Y0070536D02*
X0111431Y0070536D01*
X0110106Y0068937D02*
X0104600Y0068937D01*
X0104600Y0067339D02*
X0109600Y0067339D01*
X0109660Y0065740D02*
X0104600Y0065740D01*
X0104600Y0064142D02*
X0110353Y0064142D01*
X0112456Y0062543D02*
X0104600Y0062543D01*
X0104600Y0060945D02*
X0112186Y0060945D01*
X0110276Y0059346D02*
X0104600Y0059346D01*
X0104600Y0057748D02*
X0109614Y0057748D01*
X0109600Y0056149D02*
X0104600Y0056149D01*
X0104600Y0054551D02*
X0110153Y0054551D01*
X0111542Y0052952D02*
X0104600Y0052952D01*
X0104600Y0051354D02*
X0113174Y0051354D01*
X0110650Y0049755D02*
X0103715Y0049755D01*
X0103386Y0049426D02*
X0103386Y0049426D01*
X0102117Y0048157D02*
X0109783Y0048157D01*
X0109600Y0046558D02*
X0100518Y0046558D01*
X0098920Y0044960D02*
X0109983Y0044960D01*
X0111133Y0043361D02*
X0092467Y0043361D01*
X0092541Y0040164D02*
X0111059Y0040164D01*
X0109952Y0038566D02*
X0093648Y0038566D01*
X0094000Y0036967D02*
X0109600Y0036967D01*
X0109814Y0035369D02*
X0093786Y0035369D01*
X0092876Y0033770D02*
X0110724Y0033770D01*
X0108623Y0028700D02*
X0106800Y0028700D01*
X0106800Y0024300D01*
X0111200Y0024300D01*
X0111200Y0026123D01*
X0108623Y0028700D01*
X0106800Y0028700D02*
X0104977Y0028700D01*
X0102400Y0026123D01*
X0102400Y0024300D01*
X0106800Y0024300D01*
X0106800Y0024300D01*
X0106800Y0024300D01*
X0111200Y0024300D01*
X0111200Y0022477D01*
X0108623Y0019900D01*
X0106800Y0019900D01*
X0106800Y0024300D01*
X0106800Y0024300D01*
X0106800Y0024300D01*
X0106800Y0028700D01*
X0106800Y0027376D02*
X0106800Y0027376D01*
X0106800Y0025778D02*
X0106800Y0025778D01*
X0106800Y0024300D02*
X0102400Y0024300D01*
X0102400Y0022477D01*
X0104977Y0019900D01*
X0106800Y0019900D01*
X0106800Y0024300D01*
X0106800Y0024179D02*
X0106800Y0024179D01*
X0106800Y0022581D02*
X0106800Y0022581D01*
X0106800Y0020982D02*
X0106800Y0020982D01*
X0109705Y0020982D02*
X0124108Y0020982D01*
X0124000Y0022581D02*
X0111200Y0022581D01*
X0111200Y0024179D02*
X0122915Y0024179D01*
X0122244Y0025778D02*
X0111200Y0025778D01*
X0109946Y0027376D02*
X0122200Y0027376D01*
X0125257Y0019384D02*
X0078343Y0019384D01*
X0079492Y0020982D02*
X0093612Y0020982D01*
X0094895Y0019700D02*
X0092200Y0022395D01*
X0092200Y0026205D01*
X0094895Y0028900D01*
X0098705Y0028900D01*
X0101400Y0026205D01*
X0101400Y0022395D01*
X0098705Y0019700D01*
X0094895Y0019700D01*
X0094895Y0016400D02*
X0092200Y0013705D01*
X0092200Y0009895D01*
X0094895Y0007200D01*
X0098705Y0007200D01*
X0101400Y0009895D01*
X0101400Y0013705D01*
X0098705Y0016400D01*
X0094895Y0016400D01*
X0094681Y0016187D02*
X0075146Y0016187D01*
X0073548Y0014588D02*
X0093083Y0014588D01*
X0092200Y0012990D02*
X0071949Y0012990D01*
X0071400Y0011391D02*
X0092200Y0011391D01*
X0092302Y0009793D02*
X0071298Y0009793D01*
X0069699Y0008194D02*
X0093901Y0008194D01*
X0099699Y0008194D02*
X0104183Y0008194D01*
X0104977Y0007400D02*
X0106800Y0007400D01*
X0108623Y0007400D01*
X0111200Y0009977D01*
X0111200Y0011800D01*
X0111200Y0013623D01*
X0108623Y0016200D01*
X0106800Y0016200D01*
X0106800Y0011800D01*
X0111200Y0011800D01*
X0106800Y0011800D01*
X0106800Y0011800D01*
X0106800Y0011800D01*
X0106800Y0007400D01*
X0106800Y0011800D01*
X0106800Y0011800D01*
X0106800Y0011800D01*
X0102400Y0011800D01*
X0102400Y0013623D01*
X0104977Y0016200D01*
X0106800Y0016200D01*
X0106800Y0011800D01*
X0102400Y0011800D01*
X0102400Y0009977D01*
X0104977Y0007400D01*
X0106800Y0008194D02*
X0106800Y0008194D01*
X0106800Y0009793D02*
X0106800Y0009793D01*
X0106800Y0011391D02*
X0106800Y0011391D01*
X0106800Y0012990D02*
X0106800Y0012990D01*
X0106800Y0014588D02*
X0106800Y0014588D01*
X0106800Y0016187D02*
X0106800Y0016187D01*
X0108636Y0016187D02*
X0128454Y0016187D01*
X0130052Y0014588D02*
X0110234Y0014588D01*
X0111200Y0012990D02*
X0131651Y0012990D01*
X0133249Y0011391D02*
X0111200Y0011391D01*
X0111015Y0009793D02*
X0123570Y0009793D01*
X0122400Y0008194D02*
X0109417Y0008194D01*
X0102585Y0009793D02*
X0101298Y0009793D01*
X0101400Y0011391D02*
X0102400Y0011391D01*
X0102400Y0012990D02*
X0101400Y0012990D01*
X0100517Y0014588D02*
X0103366Y0014588D01*
X0104964Y0016187D02*
X0098919Y0016187D01*
X0099988Y0020982D02*
X0103895Y0020982D01*
X0102400Y0022581D02*
X0101400Y0022581D01*
X0101400Y0024179D02*
X0102400Y0024179D01*
X0102400Y0025778D02*
X0101400Y0025778D01*
X0100229Y0027376D02*
X0103654Y0027376D01*
X0093371Y0027376D02*
X0079600Y0027376D01*
X0079600Y0025778D02*
X0092200Y0025778D01*
X0092200Y0024179D02*
X0079600Y0024179D01*
X0079600Y0022581D02*
X0092200Y0022581D01*
X0076800Y0021800D02*
X0066800Y0011800D01*
X0063901Y0008194D02*
X0059699Y0008194D01*
X0058705Y0007200D02*
X0061400Y0009895D01*
X0061400Y0013705D01*
X0058705Y0016400D01*
X0054895Y0016400D01*
X0052200Y0013705D01*
X0052200Y0009895D01*
X0054895Y0007200D01*
X0058705Y0007200D01*
X0061298Y0009793D02*
X0062302Y0009793D01*
X0062200Y0011391D02*
X0061400Y0011391D01*
X0061400Y0012990D02*
X0062200Y0012990D01*
X0063083Y0014588D02*
X0060517Y0014588D01*
X0058919Y0016187D02*
X0064681Y0016187D01*
X0068825Y0017785D02*
X0003800Y0017785D01*
X0003800Y0016187D02*
X0004964Y0016187D01*
X0006800Y0016187D02*
X0006800Y0016187D01*
X0006800Y0014588D02*
X0006800Y0014588D01*
X0006800Y0012990D02*
X0006800Y0012990D01*
X0006800Y0011800D02*
X0006800Y0007400D01*
X0006800Y0011800D01*
X0006800Y0011800D01*
X0006800Y0011391D02*
X0006800Y0011391D01*
X0006800Y0009793D02*
X0006800Y0009793D01*
X0006800Y0008194D02*
X0006800Y0008194D01*
X0009417Y0008194D02*
X0043901Y0008194D01*
X0044895Y0007200D02*
X0048705Y0007200D01*
X0051400Y0009895D01*
X0051400Y0013705D01*
X0048705Y0016400D01*
X0044895Y0016400D01*
X0042200Y0013705D01*
X0042200Y0009895D01*
X0044895Y0007200D01*
X0042302Y0009793D02*
X0011015Y0009793D01*
X0011200Y0011391D02*
X0042200Y0011391D01*
X0042200Y0012990D02*
X0011200Y0012990D01*
X0010234Y0014588D02*
X0043083Y0014588D01*
X0044681Y0016187D02*
X0008636Y0016187D01*
X0003800Y0019384D02*
X0070424Y0019384D01*
X0072022Y0020982D02*
X0003800Y0020982D01*
X0003800Y0022581D02*
X0073621Y0022581D01*
X0074000Y0024179D02*
X0003800Y0024179D01*
X0003800Y0025778D02*
X0004100Y0025778D01*
X0006800Y0025778D02*
X0006800Y0025778D01*
X0006800Y0024900D02*
X0006800Y0029300D01*
X0006800Y0029300D01*
X0006800Y0024900D01*
X0006800Y0027376D02*
X0006800Y0027376D01*
X0006800Y0028975D02*
X0006800Y0028975D01*
X0006800Y0030573D02*
X0006800Y0030573D01*
X0006800Y0032172D02*
X0006800Y0032172D01*
X0010151Y0032172D02*
X0043166Y0032172D01*
X0042200Y0031205D02*
X0044895Y0033900D01*
X0048705Y0033900D01*
X0051400Y0031205D01*
X0051400Y0027395D01*
X0048705Y0024700D01*
X0044895Y0024700D01*
X0042200Y0027395D01*
X0042200Y0031205D01*
X0042200Y0030573D02*
X0011200Y0030573D01*
X0011200Y0028975D02*
X0042200Y0028975D01*
X0042218Y0027376D02*
X0011099Y0027376D01*
X0009500Y0025778D02*
X0043817Y0025778D01*
X0049783Y0025778D02*
X0053817Y0025778D01*
X0054895Y0024700D02*
X0052200Y0027395D01*
X0052200Y0031205D01*
X0054895Y0033900D01*
X0058705Y0033900D01*
X0061400Y0031205D01*
X0061400Y0027395D01*
X0058705Y0024700D01*
X0054895Y0024700D01*
X0052218Y0027376D02*
X0051382Y0027376D01*
X0051400Y0028975D02*
X0052200Y0028975D01*
X0052200Y0030573D02*
X0051400Y0030573D01*
X0050434Y0032172D02*
X0053166Y0032172D01*
X0054765Y0033770D02*
X0048835Y0033770D01*
X0044765Y0033770D02*
X0003800Y0033770D01*
X0003800Y0035369D02*
X0068909Y0035369D01*
X0069000Y0036967D02*
X0003800Y0036967D01*
X0003800Y0038566D02*
X0069000Y0038566D01*
X0069000Y0040164D02*
X0003800Y0040164D01*
X0003800Y0041763D02*
X0069000Y0041763D01*
X0063733Y0043361D02*
X0059584Y0043361D01*
X0058623Y0042400D02*
X0061200Y0044977D01*
X0061200Y0046800D01*
X0061200Y0048623D01*
X0058623Y0051200D01*
X0056800Y0051200D01*
X0056800Y0046800D01*
X0061200Y0046800D01*
X0056800Y0046800D01*
X0056800Y0046800D01*
X0056800Y0046800D01*
X0056800Y0042400D01*
X0058623Y0042400D01*
X0056800Y0042400D02*
X0056800Y0046800D01*
X0056800Y0046800D01*
X0056800Y0046800D01*
X0052400Y0046800D01*
X0052400Y0048623D01*
X0054977Y0051200D01*
X0056800Y0051200D01*
X0056800Y0046800D01*
X0052400Y0046800D01*
X0052400Y0044977D01*
X0054977Y0042400D01*
X0056800Y0042400D01*
X0056800Y0043361D02*
X0056800Y0043361D01*
X0056800Y0044960D02*
X0056800Y0044960D01*
X0056800Y0046558D02*
X0056800Y0046558D01*
X0056800Y0048157D02*
X0056800Y0048157D01*
X0056800Y0049755D02*
X0056800Y0049755D01*
X0060067Y0049755D02*
X0063250Y0049755D01*
X0062200Y0048157D02*
X0061200Y0048157D01*
X0061200Y0046558D02*
X0062200Y0046558D01*
X0062200Y0044960D02*
X0061182Y0044960D01*
X0064848Y0051354D02*
X0003800Y0051354D01*
X0003800Y0052952D02*
X0044142Y0052952D01*
X0044895Y0052200D02*
X0042200Y0054895D01*
X0042200Y0058705D01*
X0044895Y0061400D01*
X0048705Y0061400D01*
X0051400Y0058705D01*
X0051400Y0054895D01*
X0048705Y0052200D01*
X0044895Y0052200D01*
X0042544Y0054551D02*
X0003800Y0054551D01*
X0003800Y0056149D02*
X0042200Y0056149D01*
X0042200Y0057748D02*
X0003800Y0057748D01*
X0003800Y0059346D02*
X0042841Y0059346D01*
X0044440Y0060945D02*
X0003800Y0060945D01*
X0007000Y0061300D02*
X0007233Y0061300D01*
X0008088Y0061435D01*
X0008911Y0061703D01*
X0009683Y0062096D01*
X0010383Y0062605D01*
X0010995Y0063217D01*
X0011504Y0063917D01*
X0011897Y0064689D01*
X0012165Y0065512D01*
X0012300Y0066367D01*
X0012300Y0066600D01*
X0007000Y0066600D01*
X0007000Y0061300D01*
X0007000Y0062543D02*
X0006600Y0062543D01*
X0006600Y0064142D02*
X0007000Y0064142D01*
X0007000Y0065740D02*
X0006600Y0065740D01*
X0010298Y0062543D02*
X0062097Y0062543D01*
X0063695Y0060945D02*
X0049160Y0060945D01*
X0050759Y0059346D02*
X0065294Y0059346D01*
X0066892Y0057748D02*
X0051400Y0057748D01*
X0051400Y0056149D02*
X0068491Y0056149D01*
X0069000Y0054551D02*
X0051056Y0054551D01*
X0049458Y0052952D02*
X0069000Y0052952D01*
X0069000Y0051354D02*
X0068752Y0051354D01*
X0074600Y0051354D02*
X0083174Y0051354D01*
X0081542Y0052952D02*
X0074600Y0052952D01*
X0074600Y0049755D02*
X0080650Y0049755D01*
X0079197Y0048157D02*
X0074600Y0048157D01*
X0074600Y0046558D02*
X0077599Y0046558D01*
X0076000Y0044960D02*
X0074600Y0044960D01*
X0076800Y0041800D02*
X0076800Y0021800D01*
X0076745Y0017785D02*
X0126855Y0017785D01*
X0126800Y0009793D02*
X0126800Y0009793D01*
X0126800Y0008194D02*
X0126800Y0008194D01*
X0130030Y0009793D02*
X0134848Y0009793D01*
X0131200Y0008194D02*
X0141401Y0008194D01*
X0147199Y0008194D02*
X0157631Y0008194D01*
X0156506Y0009793D02*
X0148798Y0009793D01*
X0164473Y0008194D02*
X0166062Y0008194D01*
X0171790Y0008194D02*
X0173936Y0008194D01*
X0180482Y0014588D02*
X0180992Y0014588D01*
X0183310Y0016187D02*
X0178164Y0016187D01*
X0174775Y0017785D02*
X0196650Y0017785D01*
X0196650Y0016187D02*
X0194941Y0016187D01*
X0196650Y0019384D02*
X0173176Y0019384D01*
X0171578Y0020982D02*
X0196650Y0020982D01*
X0196650Y0022581D02*
X0183944Y0022581D01*
X0183314Y0022320D02*
X0186111Y0023478D01*
X0188252Y0025619D01*
X0189410Y0028416D01*
X0189410Y0031444D01*
X0188252Y0034241D01*
X0186111Y0036382D01*
X0183314Y0037540D01*
X0180286Y0037540D01*
X0177489Y0036382D01*
X0175348Y0034241D01*
X0174190Y0031444D01*
X0174190Y0028416D01*
X0175348Y0025619D01*
X0177489Y0023478D01*
X0180286Y0022320D01*
X0183314Y0022320D01*
X0186812Y0024179D02*
X0196650Y0024179D01*
X0196650Y0025778D02*
X0188317Y0025778D01*
X0188979Y0027376D02*
X0196650Y0027376D01*
X0196650Y0028975D02*
X0189410Y0028975D01*
X0189410Y0030573D02*
X0196650Y0030573D01*
X0196650Y0032172D02*
X0189109Y0032172D01*
X0188447Y0033770D02*
X0196650Y0033770D01*
X0196650Y0035369D02*
X0187124Y0035369D01*
X0184697Y0036967D02*
X0196650Y0036967D01*
X0196650Y0038566D02*
X0170327Y0038566D01*
X0170989Y0040164D02*
X0196650Y0040164D01*
X0196650Y0041763D02*
X0171020Y0041763D01*
X0172616Y0043361D02*
X0196650Y0043361D01*
X0196650Y0044960D02*
X0174191Y0044960D01*
X0174600Y0046558D02*
X0196650Y0046558D01*
X0196650Y0048157D02*
X0174600Y0048157D01*
X0174600Y0049755D02*
X0196650Y0049755D01*
X0196650Y0051354D02*
X0184024Y0051354D01*
X0186845Y0052952D02*
X0196650Y0052952D01*
X0196650Y0054551D02*
X0188331Y0054551D01*
X0188993Y0056149D02*
X0196650Y0056149D01*
X0196650Y0057748D02*
X0189410Y0057748D01*
X0189410Y0059346D02*
X0196650Y0059346D01*
X0196650Y0060945D02*
X0189095Y0060945D01*
X0188433Y0062543D02*
X0190302Y0062543D01*
X0190217Y0062605D02*
X0190917Y0062096D01*
X0191689Y0061703D01*
X0192512Y0061435D01*
X0193367Y0061300D01*
X0193600Y0061300D01*
X0193600Y0066600D01*
X0188300Y0066600D01*
X0188300Y0066367D01*
X0188435Y0065512D01*
X0188703Y0064689D01*
X0189096Y0063917D01*
X0189605Y0063217D01*
X0190217Y0062605D01*
X0188982Y0064142D02*
X0187091Y0064142D01*
X0188399Y0065740D02*
X0184617Y0065740D01*
X0188317Y0067339D02*
X0174600Y0067339D01*
X0174600Y0068937D02*
X0188716Y0068937D01*
X0189758Y0070536D02*
X0174600Y0070536D01*
X0174600Y0072134D02*
X0190404Y0072134D01*
X0188901Y0073733D02*
X0174600Y0073733D01*
X0174600Y0075332D02*
X0188239Y0075332D01*
X0188100Y0076930D02*
X0174600Y0076930D01*
X0174600Y0078529D02*
X0188346Y0078529D01*
X0189066Y0080127D02*
X0174600Y0080127D01*
X0174600Y0081726D02*
X0190797Y0081726D01*
X0189215Y0083324D02*
X0174600Y0083324D01*
X0174600Y0084923D02*
X0188408Y0084923D01*
X0188100Y0086521D02*
X0174600Y0086521D01*
X0174284Y0088120D02*
X0188177Y0088120D01*
X0188839Y0089718D02*
X0172842Y0089718D01*
X0171243Y0091317D02*
X0190256Y0091317D01*
X0189624Y0092915D02*
X0169645Y0092915D01*
X0168046Y0094514D02*
X0188577Y0094514D01*
X0188100Y0096112D02*
X0166448Y0096112D01*
X0164849Y0097711D02*
X0188100Y0097711D01*
X0188670Y0099309D02*
X0163251Y0099309D01*
X0161652Y0100908D02*
X0189847Y0100908D01*
X0190033Y0102506D02*
X0160054Y0102506D01*
X0158455Y0104105D02*
X0188747Y0104105D01*
X0188100Y0105703D02*
X0138700Y0105703D01*
X0138700Y0107302D02*
X0188100Y0107302D01*
X0188500Y0108900D02*
X0138422Y0108900D01*
X0136824Y0110499D02*
X0189438Y0110499D01*
X0190442Y0112097D02*
X0106057Y0112097D01*
X0104600Y0110499D02*
X0111393Y0110499D01*
X0110091Y0108900D02*
X0104600Y0108900D01*
X0104600Y0107302D02*
X0109600Y0107302D01*
X0109675Y0105703D02*
X0104600Y0105703D01*
X0104600Y0104105D02*
X0110390Y0104105D01*
X0112546Y0102506D02*
X0104600Y0102506D01*
X0104600Y0100908D02*
X0112097Y0100908D01*
X0110260Y0099309D02*
X0104600Y0099309D01*
X0104600Y0097711D02*
X0109600Y0097711D01*
X0109600Y0096112D02*
X0104600Y0096112D01*
X0104600Y0094514D02*
X0110168Y0094514D01*
X0111579Y0092915D02*
X0104600Y0092915D01*
X0104600Y0091317D02*
X0113084Y0091317D01*
X0113285Y0091400D02*
X0111594Y0090700D01*
X0110300Y0089406D01*
X0109600Y0087715D01*
X0109600Y0085885D01*
X0110300Y0084194D01*
X0111594Y0082900D01*
X0113285Y0082200D01*
X0120315Y0082200D01*
X0122006Y0082900D01*
X0123300Y0084194D01*
X0124000Y0085885D01*
X0124000Y0087715D01*
X0123300Y0089406D01*
X0122006Y0090700D01*
X0120315Y0091400D01*
X0113285Y0091400D01*
X0110613Y0089718D02*
X0104600Y0089718D01*
X0104600Y0088120D02*
X0109768Y0088120D01*
X0109600Y0086521D02*
X0104600Y0086521D01*
X0104600Y0084923D02*
X0109999Y0084923D01*
X0111171Y0083324D02*
X0104600Y0083324D01*
X0104600Y0081726D02*
X0154000Y0081726D01*
X0154000Y0083324D02*
X0137329Y0083324D01*
X0138501Y0084923D02*
X0154000Y0084923D01*
X0153119Y0086521D02*
X0138900Y0086521D01*
X0138732Y0088120D02*
X0151521Y0088120D01*
X0151800Y0091800D02*
X0156800Y0086800D01*
X0156800Y0046800D01*
X0159300Y0044300D01*
X0161721Y0044300D01*
X0166446Y0041150D02*
X0171800Y0046505D01*
X0171800Y0086800D01*
X0156800Y0101800D01*
X0126800Y0101800D01*
X0121800Y0106800D01*
X0116800Y0106800D01*
X0122207Y0110499D02*
X0131776Y0110499D01*
X0130178Y0108900D02*
X0123660Y0108900D01*
X0125258Y0107302D02*
X0129900Y0107302D01*
X0129900Y0105703D02*
X0126857Y0105703D01*
X0123732Y0100908D02*
X0121503Y0100908D01*
X0121054Y0102506D02*
X0122134Y0102506D01*
X0123340Y0099309D02*
X0125497Y0099309D01*
X0124849Y0097711D02*
X0156930Y0097711D01*
X0158528Y0096112D02*
X0126448Y0096112D01*
X0126800Y0091800D02*
X0151800Y0091800D01*
X0152565Y0094514D02*
X0160127Y0094514D01*
X0161725Y0092915D02*
X0154645Y0092915D01*
X0156243Y0091317D02*
X0163324Y0091317D01*
X0164922Y0089718D02*
X0157842Y0089718D01*
X0159284Y0088120D02*
X0166521Y0088120D01*
X0168119Y0086521D02*
X0159600Y0086521D01*
X0159600Y0084923D02*
X0169000Y0084923D01*
X0169000Y0083324D02*
X0159600Y0083324D01*
X0159600Y0081726D02*
X0169000Y0081726D01*
X0169000Y0080127D02*
X0159600Y0080127D01*
X0159600Y0078529D02*
X0169000Y0078529D01*
X0169000Y0076930D02*
X0159600Y0076930D01*
X0159600Y0075332D02*
X0169000Y0075332D01*
X0169000Y0073733D02*
X0159600Y0073733D01*
X0159600Y0072134D02*
X0169000Y0072134D01*
X0169000Y0070536D02*
X0159600Y0070536D01*
X0159600Y0068937D02*
X0169000Y0068937D01*
X0169000Y0067339D02*
X0159600Y0067339D01*
X0159600Y0065740D02*
X0169000Y0065740D01*
X0169000Y0064142D02*
X0159600Y0064142D01*
X0159600Y0062543D02*
X0169000Y0062543D01*
X0169000Y0060945D02*
X0159600Y0060945D01*
X0159600Y0059346D02*
X0169000Y0059346D01*
X0169000Y0057748D02*
X0159600Y0057748D01*
X0159600Y0056149D02*
X0169000Y0056149D01*
X0169000Y0054551D02*
X0163602Y0054551D01*
X0161721Y0054551D02*
X0161721Y0054551D01*
X0161721Y0054974D02*
X0161721Y0050599D01*
X0161721Y0050599D01*
X0161721Y0054974D01*
X0159841Y0054551D02*
X0159600Y0054551D01*
X0161721Y0052952D02*
X0161721Y0052952D01*
X0161721Y0051354D02*
X0161721Y0051354D01*
X0165419Y0052952D02*
X0169000Y0052952D01*
X0168974Y0051354D02*
X0169000Y0051354D01*
X0174600Y0051354D02*
X0179576Y0051354D01*
X0176755Y0052952D02*
X0174600Y0052952D01*
X0174600Y0054551D02*
X0175269Y0054551D01*
X0174607Y0056149D02*
X0174600Y0056149D01*
X0174600Y0062543D02*
X0175167Y0062543D01*
X0174600Y0064142D02*
X0176509Y0064142D01*
X0174600Y0065740D02*
X0178983Y0065740D01*
X0193600Y0065740D02*
X0194000Y0065740D01*
X0194000Y0064142D02*
X0193600Y0064142D01*
X0193600Y0062543D02*
X0194000Y0062543D01*
X0178903Y0036967D02*
X0168301Y0036967D01*
X0165559Y0035369D02*
X0176476Y0035369D01*
X0175153Y0033770D02*
X0164521Y0033770D01*
X0164521Y0032172D02*
X0174491Y0032172D01*
X0174190Y0030573D02*
X0164521Y0030573D01*
X0164521Y0028975D02*
X0174190Y0028975D01*
X0174621Y0027376D02*
X0165184Y0027376D01*
X0166782Y0025778D02*
X0175283Y0025778D01*
X0176788Y0024179D02*
X0168381Y0024179D01*
X0169979Y0022581D02*
X0179656Y0022581D01*
X0186038Y0016187D02*
X0190155Y0016187D01*
X0195969Y0008194D02*
X0196650Y0008194D01*
X0196650Y0006596D02*
X0131200Y0006596D01*
X0131200Y0004997D02*
X0196650Y0004997D01*
X0154000Y0073733D02*
X0122556Y0073733D01*
X0122756Y0073934D02*
X0122266Y0073444D01*
X0121706Y0073037D01*
X0121089Y0072722D01*
X0120430Y0072508D01*
X0119746Y0072400D01*
X0116800Y0072400D01*
X0116800Y0076800D01*
X0116800Y0076800D01*
X0116800Y0081200D01*
X0119746Y0081200D01*
X0120430Y0081092D01*
X0121089Y0080878D01*
X0121706Y0080563D01*
X0122266Y0080156D01*
X0122756Y0079666D01*
X0123163Y0079106D01*
X0123478Y0078489D01*
X0123692Y0077830D01*
X0123800Y0077146D01*
X0123800Y0076800D01*
X0116800Y0076800D01*
X0116800Y0076800D01*
X0116800Y0076800D01*
X0116800Y0076800D01*
X0109800Y0076800D01*
X0109800Y0077146D01*
X0109908Y0077830D01*
X0110122Y0078489D01*
X0110437Y0079106D01*
X0110844Y0079666D01*
X0111334Y0080156D01*
X0111894Y0080563D01*
X0112511Y0080878D01*
X0113170Y0081092D01*
X0113854Y0081200D01*
X0116800Y0081200D01*
X0116800Y0076800D01*
X0123800Y0076800D01*
X0123800Y0076454D01*
X0123692Y0075770D01*
X0123478Y0075111D01*
X0123163Y0074494D01*
X0122756Y0073934D01*
X0123549Y0075332D02*
X0154000Y0075332D01*
X0154000Y0076930D02*
X0123800Y0076930D01*
X0123457Y0078529D02*
X0154000Y0078529D01*
X0154000Y0080127D02*
X0122295Y0080127D01*
X0122429Y0083324D02*
X0131271Y0083324D01*
X0130099Y0084923D02*
X0123601Y0084923D01*
X0124000Y0086521D02*
X0129700Y0086521D01*
X0129868Y0088120D02*
X0123832Y0088120D01*
X0122987Y0089718D02*
X0124922Y0089718D01*
X0123324Y0091317D02*
X0120516Y0091317D01*
X0121800Y0096800D02*
X0116800Y0096800D01*
X0121800Y0096800D02*
X0126800Y0091800D01*
X0116800Y0080127D02*
X0116800Y0080127D01*
X0116800Y0078529D02*
X0116800Y0078529D01*
X0116800Y0076930D02*
X0116800Y0076930D01*
X0116800Y0076800D02*
X0109800Y0076800D01*
X0109800Y0076454D01*
X0109908Y0075770D01*
X0110122Y0075111D01*
X0110437Y0074494D01*
X0110844Y0073934D01*
X0111334Y0073444D01*
X0111894Y0073037D01*
X0112511Y0072722D01*
X0113170Y0072508D01*
X0113854Y0072400D01*
X0116800Y0072400D01*
X0116800Y0076800D01*
X0116800Y0075332D02*
X0116800Y0075332D01*
X0116800Y0073733D02*
X0116800Y0073733D01*
X0111044Y0073733D02*
X0104600Y0073733D01*
X0104600Y0075332D02*
X0110051Y0075332D01*
X0109800Y0076930D02*
X0104600Y0076930D01*
X0104600Y0078529D02*
X0110143Y0078529D01*
X0111305Y0080127D02*
X0104600Y0080127D01*
X0099000Y0080127D02*
X0092578Y0080127D01*
X0092006Y0080700D02*
X0093300Y0079406D01*
X0094000Y0077715D01*
X0094000Y0075885D01*
X0093300Y0074194D01*
X0092006Y0072900D01*
X0090315Y0072200D01*
X0083285Y0072200D01*
X0081594Y0072900D01*
X0080300Y0074194D01*
X0080000Y0074919D01*
X0080000Y0073166D01*
X0079132Y0071071D01*
X0077661Y0069600D01*
X0080495Y0069600D01*
X0081594Y0070700D01*
X0083285Y0071400D01*
X0090315Y0071400D01*
X0092006Y0070700D01*
X0093300Y0069406D01*
X0094000Y0067715D01*
X0094000Y0065885D01*
X0093300Y0064194D01*
X0092006Y0062900D01*
X0090315Y0062200D01*
X0083285Y0062200D01*
X0081594Y0062900D01*
X0080495Y0064000D01*
X0071243Y0064000D01*
X0070214Y0064426D01*
X0044426Y0090214D01*
X0044000Y0091243D01*
X0044000Y0093095D01*
X0042200Y0094895D01*
X0042200Y0098705D01*
X0044895Y0101400D01*
X0048705Y0101400D01*
X0051400Y0098705D01*
X0051400Y0094895D01*
X0049600Y0093095D01*
X0049600Y0092960D01*
X0068600Y0073960D01*
X0068600Y0075434D01*
X0069468Y0077529D01*
X0071071Y0079132D01*
X0071764Y0079419D01*
X0071417Y0079596D01*
X0070717Y0080105D01*
X0070105Y0080717D01*
X0069596Y0081417D01*
X0069203Y0082189D01*
X0068935Y0083012D01*
X0068800Y0083867D01*
X0068800Y0084100D01*
X0074100Y0084100D01*
X0074100Y0084500D01*
X0068800Y0084500D01*
X0068800Y0084733D01*
X0068935Y0085588D01*
X0069203Y0086411D01*
X0069596Y0087183D01*
X0070105Y0087883D01*
X0070717Y0088495D01*
X0071417Y0089004D01*
X0071764Y0089181D01*
X0071071Y0089468D01*
X0069468Y0091071D01*
X0068600Y0093166D01*
X0068600Y0095434D01*
X0069468Y0097529D01*
X0071071Y0099132D01*
X0073166Y0100000D01*
X0075434Y0100000D01*
X0077529Y0099132D01*
X0079132Y0097529D01*
X0080000Y0095434D01*
X0080000Y0093166D01*
X0079132Y0091071D01*
X0077529Y0089468D01*
X0076836Y0089181D01*
X0077183Y0089004D01*
X0077883Y0088495D01*
X0078495Y0087883D01*
X0079004Y0087183D01*
X0079397Y0086411D01*
X0079665Y0085588D01*
X0079800Y0084733D01*
X0079800Y0084500D01*
X0074500Y0084500D01*
X0074500Y0084100D01*
X0079800Y0084100D01*
X0079800Y0083867D01*
X0079665Y0083012D01*
X0079397Y0082189D01*
X0079004Y0081417D01*
X0078495Y0080717D01*
X0077883Y0080105D01*
X0077183Y0079596D01*
X0076836Y0079419D01*
X0077529Y0079132D01*
X0079132Y0077529D01*
X0079600Y0076399D01*
X0079600Y0077715D01*
X0080300Y0079406D01*
X0081594Y0080700D01*
X0083285Y0081400D01*
X0090315Y0081400D01*
X0092006Y0080700D01*
X0092006Y0082900D02*
X0093300Y0084194D01*
X0094000Y0085885D01*
X0094000Y0087715D01*
X0093300Y0089406D01*
X0092006Y0090700D01*
X0090315Y0091400D01*
X0083285Y0091400D01*
X0081594Y0090700D01*
X0080300Y0089406D01*
X0079600Y0087715D01*
X0079600Y0085885D01*
X0080300Y0084194D01*
X0081594Y0082900D01*
X0083285Y0082200D01*
X0090315Y0082200D01*
X0092006Y0082900D01*
X0092429Y0083324D02*
X0099000Y0083324D01*
X0099000Y0081726D02*
X0079161Y0081726D01*
X0079714Y0083324D02*
X0081171Y0083324D01*
X0079999Y0084923D02*
X0079770Y0084923D01*
X0079600Y0086521D02*
X0079341Y0086521D01*
X0079768Y0088120D02*
X0078259Y0088120D01*
X0077779Y0089718D02*
X0080613Y0089718D01*
X0079234Y0091317D02*
X0083084Y0091317D01*
X0083170Y0092508D02*
X0083854Y0092400D01*
X0086800Y0092400D01*
X0089746Y0092400D01*
X0090430Y0092508D01*
X0091089Y0092722D01*
X0091706Y0093037D01*
X0092266Y0093444D01*
X0092756Y0093934D01*
X0093163Y0094494D01*
X0093478Y0095111D01*
X0093692Y0095770D01*
X0093800Y0096454D01*
X0093800Y0096800D01*
X0093800Y0097146D01*
X0093692Y0097830D01*
X0093478Y0098489D01*
X0093163Y0099106D01*
X0092756Y0099666D01*
X0092266Y0100156D01*
X0091706Y0100563D01*
X0091089Y0100878D01*
X0090430Y0101092D01*
X0089746Y0101200D01*
X0086800Y0101200D01*
X0086800Y0096800D01*
X0086800Y0096800D01*
X0093800Y0096800D01*
X0086800Y0096800D01*
X0086800Y0096800D01*
X0086800Y0092400D01*
X0086800Y0096800D01*
X0086800Y0096800D01*
X0086800Y0096800D01*
X0079800Y0096800D01*
X0079800Y0097146D01*
X0079908Y0097830D01*
X0080122Y0098489D01*
X0080437Y0099106D01*
X0080844Y0099666D01*
X0081334Y0100156D01*
X0081894Y0100563D01*
X0082511Y0100878D01*
X0083170Y0101092D01*
X0083854Y0101200D01*
X0086800Y0101200D01*
X0086800Y0096800D01*
X0079800Y0096800D01*
X0079800Y0096454D01*
X0079908Y0095770D01*
X0080122Y0095111D01*
X0080437Y0094494D01*
X0080844Y0093934D01*
X0081334Y0093444D01*
X0081894Y0093037D01*
X0082511Y0092722D01*
X0083170Y0092508D01*
X0082133Y0092915D02*
X0079896Y0092915D01*
X0080000Y0094514D02*
X0080427Y0094514D01*
X0079854Y0096112D02*
X0079719Y0096112D01*
X0079889Y0097711D02*
X0078950Y0097711D01*
X0080584Y0099309D02*
X0077102Y0099309D01*
X0080390Y0104105D02*
X0011853Y0104105D01*
X0012500Y0105703D02*
X0079675Y0105703D01*
X0079600Y0107302D02*
X0012500Y0107302D01*
X0012100Y0108900D02*
X0080091Y0108900D01*
X0081393Y0110499D02*
X0011162Y0110499D01*
X0010158Y0112097D02*
X0094000Y0112097D01*
X0094000Y0110499D02*
X0092207Y0110499D01*
X0093509Y0108900D02*
X0093831Y0108900D01*
X0096800Y0106800D02*
X0096800Y0156800D01*
X0095286Y0160053D02*
X0092653Y0160053D01*
X0092006Y0162900D02*
X0093300Y0164194D01*
X0094000Y0165885D01*
X0094000Y0167715D01*
X0093300Y0169406D01*
X0092006Y0170700D01*
X0090315Y0171400D01*
X0086160Y0171400D01*
X0084600Y0172960D01*
X0084600Y0183095D01*
X0086400Y0184895D01*
X0086400Y0188705D01*
X0083705Y0191400D01*
X0079895Y0191400D01*
X0077200Y0188705D01*
X0077200Y0184895D01*
X0079000Y0183095D01*
X0079000Y0171243D01*
X0079426Y0170214D01*
X0080281Y0169359D01*
X0079600Y0167715D01*
X0079600Y0165885D01*
X0080300Y0164194D01*
X0081594Y0162900D01*
X0083285Y0162200D01*
X0090315Y0162200D01*
X0092006Y0162900D01*
X0092355Y0163250D02*
X0099370Y0163250D01*
X0099000Y0161651D02*
X0063884Y0161651D01*
X0062934Y0161257D02*
X0065029Y0162125D01*
X0066632Y0163729D01*
X0067500Y0165824D01*
X0067500Y0168091D01*
X0066632Y0170186D01*
X0065029Y0171790D01*
X0062934Y0172657D01*
X0060666Y0172657D01*
X0058571Y0171790D01*
X0056968Y0170186D01*
X0056100Y0168091D01*
X0056100Y0165824D01*
X0056968Y0163729D01*
X0058571Y0162125D01*
X0060666Y0161257D01*
X0062934Y0161257D01*
X0066153Y0163250D02*
X0081245Y0163250D01*
X0080029Y0164848D02*
X0067096Y0164848D01*
X0067500Y0166447D02*
X0079600Y0166447D01*
X0079737Y0168045D02*
X0067500Y0168045D01*
X0066857Y0169644D02*
X0079997Y0169644D01*
X0079000Y0171242D02*
X0065576Y0171242D01*
X0058024Y0171242D02*
X0035260Y0171242D01*
X0035383Y0171153D02*
X0034683Y0171661D01*
X0033911Y0172055D01*
X0033088Y0172322D01*
X0032233Y0172457D01*
X0032000Y0172457D01*
X0032000Y0167158D01*
X0031600Y0167158D01*
X0031600Y0172457D01*
X0031367Y0172457D01*
X0030512Y0172322D01*
X0029689Y0172055D01*
X0028917Y0171661D01*
X0028217Y0171153D01*
X0027605Y0170540D01*
X0027096Y0169840D01*
X0026703Y0169069D01*
X0026435Y0168245D01*
X0026300Y0167390D01*
X0026300Y0167157D01*
X0031600Y0167157D01*
X0031600Y0166757D01*
X0032000Y0166757D01*
X0032000Y0161457D01*
X0032233Y0161457D01*
X0033088Y0161593D01*
X0033911Y0161860D01*
X0034683Y0162253D01*
X0035383Y0162762D01*
X0035995Y0163374D01*
X0036504Y0164075D01*
X0036897Y0164846D01*
X0037165Y0165670D01*
X0037300Y0166525D01*
X0037300Y0166757D01*
X0032000Y0166757D01*
X0032000Y0167157D01*
X0037300Y0167157D01*
X0037300Y0167390D01*
X0037165Y0168245D01*
X0036897Y0169069D01*
X0036504Y0169840D01*
X0035995Y0170540D01*
X0035383Y0171153D01*
X0036604Y0169644D02*
X0056743Y0169644D01*
X0056100Y0168045D02*
X0037196Y0168045D01*
X0037288Y0166447D02*
X0056100Y0166447D01*
X0056504Y0164848D02*
X0036898Y0164848D01*
X0035870Y0163250D02*
X0057447Y0163250D01*
X0059716Y0161651D02*
X0033267Y0161651D01*
X0032000Y0161651D02*
X0031600Y0161651D01*
X0031600Y0161457D02*
X0031600Y0166757D01*
X0026300Y0166757D01*
X0026300Y0166525D01*
X0026435Y0165670D01*
X0026703Y0164846D01*
X0027096Y0164075D01*
X0027605Y0163374D01*
X0028217Y0162762D01*
X0028917Y0162253D01*
X0029689Y0161860D01*
X0030512Y0161593D01*
X0031367Y0161457D01*
X0031600Y0161457D01*
X0030333Y0161651D02*
X0009983Y0161651D01*
X0011019Y0163250D02*
X0027730Y0163250D01*
X0026702Y0164848D02*
X0011949Y0164848D01*
X0012300Y0166447D02*
X0026312Y0166447D01*
X0026404Y0168045D02*
X0012171Y0168045D01*
X0011524Y0169644D02*
X0026996Y0169644D01*
X0028340Y0171242D02*
X0010043Y0171242D01*
X0010902Y0172841D02*
X0079000Y0172841D01*
X0079000Y0174439D02*
X0011992Y0174439D01*
X0012500Y0176038D02*
X0079000Y0176038D01*
X0079000Y0177636D02*
X0012500Y0177636D01*
X0011961Y0179235D02*
X0079000Y0179235D01*
X0079000Y0180833D02*
X0010828Y0180833D01*
X0010493Y0182432D02*
X0027950Y0182432D01*
X0028571Y0181810D02*
X0026968Y0183414D01*
X0026100Y0185509D01*
X0026100Y0187776D01*
X0026968Y0189871D01*
X0028571Y0191475D01*
X0030666Y0192343D01*
X0032934Y0192343D01*
X0035029Y0191475D01*
X0036632Y0189871D01*
X0037500Y0187776D01*
X0037500Y0185509D01*
X0036632Y0183414D01*
X0035029Y0181810D01*
X0032934Y0180943D01*
X0030666Y0180943D01*
X0028571Y0181810D01*
X0026712Y0184030D02*
X0011822Y0184030D01*
X0012484Y0185629D02*
X0026100Y0185629D01*
X0026100Y0187227D02*
X0012500Y0187227D01*
X0012131Y0188826D02*
X0026535Y0188826D01*
X0027521Y0190424D02*
X0011237Y0190424D01*
X0009086Y0192023D02*
X0029894Y0192023D01*
X0033706Y0192023D02*
X0060612Y0192023D01*
X0060512Y0192007D02*
X0059689Y0191740D01*
X0058917Y0191347D01*
X0058217Y0190838D01*
X0057605Y0190226D01*
X0057096Y0189525D01*
X0056703Y0188754D01*
X0056435Y0187930D01*
X0056300Y0187075D01*
X0056300Y0186843D01*
X0061600Y0186843D01*
X0061600Y0192143D01*
X0061367Y0192143D01*
X0060512Y0192007D01*
X0061600Y0192023D02*
X0062000Y0192023D01*
X0062000Y0192142D02*
X0062000Y0186843D01*
X0061600Y0186843D01*
X0061600Y0186442D01*
X0062000Y0186442D01*
X0062000Y0181143D01*
X0062233Y0181143D01*
X0063088Y0181278D01*
X0063911Y0181545D01*
X0064683Y0181938D01*
X0065383Y0182447D01*
X0065995Y0183060D01*
X0066504Y0183760D01*
X0066897Y0184531D01*
X0067165Y0185355D01*
X0067300Y0186210D01*
X0067300Y0186442D01*
X0062000Y0186442D01*
X0062000Y0186843D01*
X0067300Y0186843D01*
X0067300Y0187075D01*
X0067165Y0187930D01*
X0066897Y0188754D01*
X0066504Y0189525D01*
X0065995Y0190226D01*
X0065383Y0190838D01*
X0064683Y0191347D01*
X0063911Y0191740D01*
X0063088Y0192007D01*
X0062233Y0192143D01*
X0062000Y0192142D01*
X0062988Y0192023D02*
X0196650Y0192023D01*
X0196650Y0193621D02*
X0003800Y0193621D01*
X0003800Y0192023D02*
X0004514Y0192023D01*
X0003800Y0195220D02*
X0196650Y0195220D01*
X0196650Y0190424D02*
X0124681Y0190424D01*
X0126280Y0188826D02*
X0196650Y0188826D01*
X0196650Y0187227D02*
X0126400Y0187227D01*
X0126931Y0185629D02*
X0196650Y0185629D01*
X0196650Y0184030D02*
X0128529Y0184030D01*
X0129569Y0182432D02*
X0196650Y0182432D01*
X0196650Y0180833D02*
X0129600Y0180833D01*
X0129600Y0179235D02*
X0196650Y0179235D01*
X0196650Y0177636D02*
X0129600Y0177636D01*
X0129600Y0176038D02*
X0196650Y0176038D01*
X0196650Y0174439D02*
X0129600Y0174439D01*
X0129600Y0172841D02*
X0196650Y0172841D01*
X0196650Y0171242D02*
X0129600Y0171242D01*
X0130462Y0169644D02*
X0196650Y0169644D01*
X0196650Y0168045D02*
X0131400Y0168045D01*
X0131400Y0166447D02*
X0196650Y0166447D01*
X0196650Y0164848D02*
X0131354Y0164848D01*
X0129755Y0163250D02*
X0196650Y0163250D01*
X0196650Y0161651D02*
X0105611Y0161651D01*
X0104600Y0160053D02*
X0111230Y0160053D01*
X0111334Y0160156D02*
X0110844Y0159666D01*
X0110437Y0159106D01*
X0110122Y0158489D01*
X0109908Y0157830D01*
X0109800Y0157146D01*
X0109800Y0156800D01*
X0116800Y0156800D01*
X0116800Y0156800D01*
X0116800Y0161200D01*
X0119746Y0161200D01*
X0120430Y0161092D01*
X0121089Y0160878D01*
X0121706Y0160563D01*
X0122266Y0160156D01*
X0122756Y0159666D01*
X0123046Y0159268D01*
X0124977Y0161200D01*
X0126800Y0161200D01*
X0126800Y0156800D01*
X0126800Y0156800D01*
X0131200Y0156800D01*
X0131200Y0158623D01*
X0128623Y0161200D01*
X0126800Y0161200D01*
X0126800Y0156800D01*
X0126800Y0156800D01*
X0131200Y0156800D01*
X0131200Y0154977D01*
X0128623Y0152400D01*
X0126800Y0152400D01*
X0126800Y0156800D01*
X0126800Y0156800D01*
X0126800Y0156800D01*
X0122400Y0156800D01*
X0116800Y0156800D01*
X0116800Y0156800D01*
X0116800Y0161200D01*
X0113854Y0161200D01*
X0113170Y0161092D01*
X0112511Y0160878D01*
X0111894Y0160563D01*
X0111334Y0160156D01*
X0110111Y0158454D02*
X0104600Y0158454D01*
X0104600Y0156856D02*
X0109800Y0156856D01*
X0109800Y0156800D02*
X0109800Y0156454D01*
X0109908Y0155770D01*
X0110122Y0155111D01*
X0110437Y0154494D01*
X0110844Y0153934D01*
X0111334Y0153444D01*
X0111894Y0153037D01*
X0112511Y0152722D01*
X0113170Y0152508D01*
X0113854Y0152400D01*
X0116800Y0152400D01*
X0119746Y0152400D01*
X0120430Y0152508D01*
X0121089Y0152722D01*
X0121706Y0153037D01*
X0122266Y0153444D01*
X0122756Y0153934D01*
X0123046Y0154332D01*
X0124977Y0152400D01*
X0126800Y0152400D01*
X0126800Y0156800D01*
X0116800Y0156800D01*
X0116800Y0152400D01*
X0116800Y0156800D01*
X0116800Y0156800D01*
X0116800Y0156800D01*
X0109800Y0156800D01*
X0110075Y0155257D02*
X0104600Y0155257D01*
X0104600Y0153659D02*
X0111119Y0153659D01*
X0111594Y0150700D02*
X0113285Y0151400D01*
X0120315Y0151400D01*
X0122006Y0150700D01*
X0123300Y0149406D01*
X0124000Y0147715D01*
X0124000Y0145885D01*
X0123300Y0144194D01*
X0122006Y0142900D01*
X0120315Y0142200D01*
X0113285Y0142200D01*
X0111594Y0142900D01*
X0110300Y0144194D01*
X0109600Y0145885D01*
X0109600Y0147715D01*
X0110300Y0149406D01*
X0111594Y0150700D01*
X0111356Y0150462D02*
X0104600Y0150462D01*
X0104600Y0152060D02*
X0196650Y0152060D01*
X0196650Y0150462D02*
X0122244Y0150462D01*
X0123524Y0148863D02*
X0196650Y0148863D01*
X0196650Y0147265D02*
X0124000Y0147265D01*
X0123909Y0145666D02*
X0196650Y0145666D01*
X0196650Y0144068D02*
X0123173Y0144068D01*
X0120964Y0142469D02*
X0192591Y0142469D01*
X0195009Y0142469D02*
X0196650Y0142469D01*
X0189809Y0140870D02*
X0121593Y0140870D01*
X0122006Y0140700D02*
X0120315Y0141400D01*
X0113285Y0141400D01*
X0111594Y0140700D01*
X0110300Y0139406D01*
X0109600Y0137715D01*
X0109600Y0135885D01*
X0110300Y0134194D01*
X0111594Y0132900D01*
X0113285Y0132200D01*
X0120315Y0132200D01*
X0122006Y0132900D01*
X0123300Y0134194D01*
X0124000Y0135885D01*
X0124000Y0137715D01*
X0123300Y0139406D01*
X0122006Y0140700D01*
X0123355Y0139272D02*
X0188654Y0139272D01*
X0188100Y0137673D02*
X0124000Y0137673D01*
X0124000Y0136075D02*
X0188100Y0136075D01*
X0188593Y0134476D02*
X0123417Y0134476D01*
X0121952Y0132878D02*
X0189661Y0132878D01*
X0190218Y0131279D02*
X0120606Y0131279D01*
X0120315Y0131400D02*
X0122006Y0130700D01*
X0123300Y0129406D01*
X0124000Y0127715D01*
X0124000Y0125885D01*
X0123300Y0124194D01*
X0122006Y0122900D01*
X0120315Y0122200D01*
X0113285Y0122200D01*
X0111594Y0122900D01*
X0110300Y0124194D01*
X0109600Y0125885D01*
X0109600Y0127715D01*
X0110300Y0129406D01*
X0111594Y0130700D01*
X0113285Y0131400D01*
X0120315Y0131400D01*
X0123024Y0129681D02*
X0188824Y0129681D01*
X0188162Y0128082D02*
X0123848Y0128082D01*
X0124000Y0126484D02*
X0188100Y0126484D01*
X0188423Y0124885D02*
X0123586Y0124885D01*
X0122392Y0123287D02*
X0189252Y0123287D01*
X0190707Y0121688D02*
X0105871Y0121688D01*
X0104600Y0123287D02*
X0111208Y0123287D01*
X0110014Y0124885D02*
X0104600Y0124885D01*
X0104600Y0126484D02*
X0109600Y0126484D01*
X0109752Y0128082D02*
X0104600Y0128082D01*
X0104600Y0129681D02*
X0110576Y0129681D01*
X0112994Y0131279D02*
X0104600Y0131279D01*
X0104600Y0132878D02*
X0111648Y0132878D01*
X0110183Y0134476D02*
X0104600Y0134476D01*
X0104600Y0136075D02*
X0109600Y0136075D01*
X0109600Y0137673D02*
X0104600Y0137673D01*
X0104600Y0139272D02*
X0110245Y0139272D01*
X0112007Y0140870D02*
X0104600Y0140870D01*
X0104600Y0142469D02*
X0112636Y0142469D01*
X0110427Y0144068D02*
X0104600Y0144068D01*
X0104600Y0145666D02*
X0109691Y0145666D01*
X0109600Y0147265D02*
X0104600Y0147265D01*
X0104600Y0148863D02*
X0110076Y0148863D01*
X0116800Y0153659D02*
X0116800Y0153659D01*
X0116800Y0155257D02*
X0116800Y0155257D01*
X0116800Y0156856D02*
X0116800Y0156856D01*
X0116800Y0158454D02*
X0116800Y0158454D01*
X0116800Y0160053D02*
X0116800Y0160053D01*
X0122370Y0160053D02*
X0123830Y0160053D01*
X0126800Y0160053D02*
X0126800Y0160053D01*
X0126800Y0158454D02*
X0126800Y0158454D01*
X0126800Y0156856D02*
X0126800Y0156856D01*
X0126800Y0155257D02*
X0126800Y0155257D01*
X0126800Y0153659D02*
X0126800Y0153659D01*
X0129881Y0153659D02*
X0196650Y0153659D01*
X0196650Y0155257D02*
X0131200Y0155257D01*
X0131200Y0156856D02*
X0196650Y0156856D01*
X0196650Y0158454D02*
X0131200Y0158454D01*
X0129770Y0160053D02*
X0196650Y0160053D01*
X0189029Y0120090D02*
X0122616Y0120090D01*
X0123678Y0118491D02*
X0188331Y0118491D01*
X0188100Y0116893D02*
X0124000Y0116893D01*
X0123755Y0115294D02*
X0188254Y0115294D01*
X0188916Y0113696D02*
X0122801Y0113696D01*
X0116800Y0116800D02*
X0106800Y0116800D01*
X0101800Y0121800D01*
X0101800Y0161800D01*
X0106800Y0166800D01*
X0116800Y0166800D01*
X0122355Y0163250D02*
X0123845Y0163250D01*
X0126800Y0166800D02*
X0126800Y0181800D01*
X0121800Y0186800D01*
X0117200Y0187227D02*
X0086400Y0187227D01*
X0086400Y0185629D02*
X0117200Y0185629D01*
X0118064Y0184030D02*
X0085536Y0184030D01*
X0084600Y0182432D02*
X0119663Y0182432D01*
X0123807Y0180833D02*
X0084600Y0180833D01*
X0084600Y0179235D02*
X0124000Y0179235D01*
X0124000Y0177636D02*
X0084600Y0177636D01*
X0084600Y0176038D02*
X0124000Y0176038D01*
X0124000Y0174439D02*
X0084600Y0174439D01*
X0084719Y0172841D02*
X0124000Y0172841D01*
X0124000Y0171242D02*
X0120696Y0171242D01*
X0123062Y0169644D02*
X0123138Y0169644D01*
X0112904Y0171242D02*
X0090696Y0171242D01*
X0093062Y0169644D02*
X0110538Y0169644D01*
X0111245Y0163250D02*
X0107209Y0163250D01*
X0104085Y0168045D02*
X0093863Y0168045D01*
X0094000Y0166447D02*
X0102487Y0166447D01*
X0100888Y0164848D02*
X0093571Y0164848D01*
X0098314Y0160053D02*
X0099000Y0160053D01*
X0094000Y0153659D02*
X0092764Y0153659D01*
X0094000Y0152060D02*
X0035500Y0152060D01*
X0037098Y0150462D02*
X0081356Y0150462D01*
X0081594Y0150700D02*
X0080300Y0149406D01*
X0079600Y0147715D01*
X0079600Y0145885D01*
X0080300Y0144194D01*
X0081594Y0142900D01*
X0083285Y0142200D01*
X0090315Y0142200D01*
X0092006Y0142900D01*
X0093300Y0144194D01*
X0094000Y0145885D01*
X0094000Y0147715D01*
X0093300Y0149406D01*
X0092006Y0150700D01*
X0090315Y0151400D01*
X0083285Y0151400D01*
X0081594Y0150700D01*
X0080076Y0148863D02*
X0038697Y0148863D01*
X0040295Y0147265D02*
X0079600Y0147265D01*
X0079691Y0145666D02*
X0041894Y0145666D01*
X0043492Y0144068D02*
X0080427Y0144068D01*
X0082007Y0140870D02*
X0046689Y0140870D01*
X0045091Y0142469D02*
X0082636Y0142469D01*
X0086800Y0136800D02*
X0046800Y0136800D01*
X0026800Y0156800D01*
X0006800Y0156800D01*
X0010121Y0152060D02*
X0027580Y0152060D01*
X0025982Y0153659D02*
X0011668Y0153659D01*
X0011199Y0150462D02*
X0029179Y0150462D01*
X0028697Y0148863D02*
X0030777Y0148863D01*
X0030295Y0147265D02*
X0032376Y0147265D01*
X0031894Y0145666D02*
X0033974Y0145666D01*
X0033492Y0144068D02*
X0035573Y0144068D01*
X0035091Y0142469D02*
X0037171Y0142469D01*
X0036689Y0140870D02*
X0038770Y0140870D01*
X0038288Y0139272D02*
X0040368Y0139272D01*
X0039886Y0137673D02*
X0041967Y0137673D01*
X0041485Y0136075D02*
X0043565Y0136075D01*
X0043083Y0134476D02*
X0045164Y0134476D01*
X0044682Y0132878D02*
X0081648Y0132878D01*
X0082994Y0131279D02*
X0046280Y0131279D01*
X0047879Y0129681D02*
X0080576Y0129681D01*
X0081208Y0123287D02*
X0011348Y0123287D01*
X0012177Y0124885D02*
X0044755Y0124885D01*
X0043156Y0126484D02*
X0012500Y0126484D01*
X0012438Y0128082D02*
X0041558Y0128082D01*
X0039959Y0129681D02*
X0011776Y0129681D01*
X0010382Y0131279D02*
X0038361Y0131279D01*
X0036762Y0132878D02*
X0010939Y0132878D01*
X0012007Y0134476D02*
X0035164Y0134476D01*
X0033565Y0136075D02*
X0012500Y0136075D01*
X0012500Y0137673D02*
X0031967Y0137673D01*
X0030368Y0139272D02*
X0011946Y0139272D01*
X0010791Y0140870D02*
X0028770Y0140870D01*
X0027171Y0142469D02*
X0010530Y0142469D01*
X0006800Y0146800D02*
X0026800Y0146800D01*
X0046800Y0126800D01*
X0086800Y0126800D01*
X0090606Y0131279D02*
X0094000Y0131279D01*
X0094000Y0129681D02*
X0093024Y0129681D01*
X0093848Y0128082D02*
X0094000Y0128082D01*
X0094000Y0126484D02*
X0094000Y0126484D01*
X0094000Y0124885D02*
X0093586Y0124885D01*
X0094000Y0123287D02*
X0092392Y0123287D01*
X0094000Y0121688D02*
X0009893Y0121688D01*
X0011571Y0120090D02*
X0080984Y0120090D01*
X0081594Y0120700D02*
X0080300Y0119406D01*
X0079600Y0117715D01*
X0079600Y0115885D01*
X0080300Y0114194D01*
X0081594Y0112900D01*
X0083285Y0112200D01*
X0090315Y0112200D01*
X0092006Y0112900D01*
X0093300Y0114194D01*
X0094000Y0115885D01*
X0094000Y0117715D01*
X0093300Y0119406D01*
X0092006Y0120700D01*
X0090315Y0121400D01*
X0083285Y0121400D01*
X0081594Y0120700D01*
X0079922Y0118491D02*
X0012269Y0118491D01*
X0012500Y0116893D02*
X0079600Y0116893D01*
X0079845Y0115294D02*
X0012346Y0115294D01*
X0011684Y0113696D02*
X0080799Y0113696D01*
X0082546Y0102506D02*
X0010567Y0102506D01*
X0010753Y0100908D02*
X0044402Y0100908D01*
X0042804Y0099309D02*
X0011930Y0099309D01*
X0012500Y0097711D02*
X0042200Y0097711D01*
X0042200Y0096112D02*
X0012500Y0096112D01*
X0012023Y0094514D02*
X0042581Y0094514D01*
X0044000Y0092915D02*
X0010976Y0092915D01*
X0010344Y0091317D02*
X0044000Y0091317D01*
X0044922Y0089718D02*
X0011761Y0089718D01*
X0006800Y0086800D02*
X0041800Y0086800D01*
X0071800Y0056800D01*
X0071800Y0034300D01*
X0066800Y0029300D01*
X0071400Y0028975D02*
X0074000Y0028975D01*
X0074000Y0030573D02*
X0072033Y0030573D01*
X0073631Y0032172D02*
X0074000Y0032172D01*
X0074000Y0027376D02*
X0071382Y0027376D01*
X0069783Y0025778D02*
X0074000Y0025778D01*
X0064765Y0033770D02*
X0058835Y0033770D01*
X0060434Y0032172D02*
X0063166Y0032172D01*
X0062200Y0030573D02*
X0061400Y0030573D01*
X0061400Y0028975D02*
X0062200Y0028975D01*
X0062218Y0027376D02*
X0061382Y0027376D01*
X0059783Y0025778D02*
X0063817Y0025778D01*
X0054681Y0016187D02*
X0048919Y0016187D01*
X0050517Y0014588D02*
X0053083Y0014588D01*
X0052200Y0012990D02*
X0051400Y0012990D01*
X0051400Y0011391D02*
X0052200Y0011391D01*
X0052302Y0009793D02*
X0051298Y0009793D01*
X0049699Y0008194D02*
X0053901Y0008194D01*
X0076800Y0041800D02*
X0081800Y0046800D01*
X0086800Y0046800D01*
X0096800Y0046800D01*
X0101800Y0051800D01*
X0101800Y0111800D01*
X0106800Y0116800D01*
X0107470Y0120090D02*
X0110984Y0120090D01*
X0110799Y0113696D02*
X0107656Y0113696D01*
X0099000Y0102506D02*
X0091054Y0102506D01*
X0090996Y0100908D02*
X0099000Y0100908D01*
X0099000Y0099309D02*
X0093016Y0099309D01*
X0093711Y0097711D02*
X0099000Y0097711D01*
X0099000Y0096112D02*
X0093746Y0096112D01*
X0093173Y0094514D02*
X0099000Y0094514D01*
X0099000Y0092915D02*
X0091467Y0092915D01*
X0090516Y0091317D02*
X0099000Y0091317D01*
X0099000Y0089718D02*
X0092987Y0089718D01*
X0093832Y0088120D02*
X0099000Y0088120D01*
X0099000Y0086521D02*
X0094000Y0086521D01*
X0093601Y0084923D02*
X0099000Y0084923D01*
X0099000Y0078529D02*
X0093663Y0078529D01*
X0094000Y0076930D02*
X0099000Y0076930D01*
X0099000Y0075332D02*
X0093771Y0075332D01*
X0092838Y0073733D02*
X0099000Y0073733D01*
X0099000Y0072134D02*
X0079573Y0072134D01*
X0080000Y0073733D02*
X0080762Y0073733D01*
X0081431Y0070536D02*
X0078597Y0070536D01*
X0079380Y0076930D02*
X0079600Y0076930D01*
X0079937Y0078529D02*
X0078132Y0078529D01*
X0077905Y0080127D02*
X0081022Y0080127D01*
X0070695Y0080127D02*
X0062433Y0080127D01*
X0064031Y0078529D02*
X0070468Y0078529D01*
X0069220Y0076930D02*
X0065630Y0076930D01*
X0067228Y0075332D02*
X0068600Y0075332D01*
X0069439Y0081726D02*
X0060834Y0081726D01*
X0059236Y0083324D02*
X0068886Y0083324D01*
X0068830Y0084923D02*
X0057637Y0084923D01*
X0056039Y0086521D02*
X0069259Y0086521D01*
X0070341Y0088120D02*
X0054440Y0088120D01*
X0052842Y0089718D02*
X0070821Y0089718D01*
X0069366Y0091317D02*
X0051243Y0091317D01*
X0049645Y0092915D02*
X0068704Y0092915D01*
X0068600Y0094514D02*
X0051019Y0094514D01*
X0051400Y0096112D02*
X0068881Y0096112D01*
X0069650Y0097711D02*
X0051400Y0097711D01*
X0050796Y0099309D02*
X0071498Y0099309D01*
X0082604Y0100908D02*
X0049198Y0100908D01*
X0046800Y0096800D02*
X0046800Y0091800D01*
X0071800Y0066800D01*
X0086800Y0066800D01*
X0091144Y0062543D02*
X0099000Y0062543D01*
X0099000Y0060945D02*
X0091414Y0060945D01*
X0093324Y0059346D02*
X0099000Y0059346D01*
X0099000Y0057748D02*
X0093986Y0057748D01*
X0094000Y0056149D02*
X0099000Y0056149D01*
X0099000Y0054551D02*
X0093447Y0054551D01*
X0092058Y0052952D02*
X0098993Y0052952D01*
X0097394Y0051354D02*
X0090426Y0051354D01*
X0092950Y0049755D02*
X0095796Y0049755D01*
X0086800Y0056800D02*
X0071800Y0056800D01*
X0071615Y0060945D02*
X0082186Y0060945D01*
X0082456Y0062543D02*
X0070016Y0062543D01*
X0070900Y0064142D02*
X0068418Y0064142D01*
X0068900Y0065740D02*
X0066819Y0065740D01*
X0067301Y0067339D02*
X0065221Y0067339D01*
X0065703Y0068937D02*
X0063622Y0068937D01*
X0064104Y0070536D02*
X0062024Y0070536D01*
X0062506Y0072134D02*
X0060425Y0072134D01*
X0060907Y0073733D02*
X0058827Y0073733D01*
X0059309Y0075332D02*
X0057228Y0075332D01*
X0057710Y0076930D02*
X0055630Y0076930D01*
X0056112Y0078529D02*
X0054031Y0078529D01*
X0054513Y0080127D02*
X0052433Y0080127D01*
X0052915Y0081726D02*
X0050834Y0081726D01*
X0051316Y0083324D02*
X0049236Y0083324D01*
X0049718Y0084923D02*
X0047637Y0084923D01*
X0048119Y0086521D02*
X0046039Y0086521D01*
X0046521Y0088120D02*
X0044440Y0088120D01*
X0041316Y0083324D02*
X0011385Y0083324D01*
X0009803Y0081726D02*
X0042915Y0081726D01*
X0044513Y0080127D02*
X0011534Y0080127D01*
X0012254Y0078529D02*
X0046112Y0078529D01*
X0047710Y0076930D02*
X0012500Y0076930D01*
X0012361Y0075332D02*
X0049309Y0075332D01*
X0050907Y0073733D02*
X0011699Y0073733D01*
X0010196Y0072134D02*
X0052506Y0072134D01*
X0054104Y0070536D02*
X0010842Y0070536D01*
X0011884Y0068937D02*
X0055703Y0068937D01*
X0057301Y0067339D02*
X0012283Y0067339D01*
X0012201Y0065740D02*
X0058900Y0065740D01*
X0060498Y0064142D02*
X0011618Y0064142D01*
X0003800Y0049755D02*
X0053533Y0049755D01*
X0052400Y0048157D02*
X0003800Y0048157D01*
X0003800Y0046558D02*
X0052400Y0046558D01*
X0052418Y0044960D02*
X0003800Y0044960D01*
X0003800Y0043361D02*
X0054016Y0043361D01*
X0081800Y0056800D02*
X0086800Y0056800D01*
X0093247Y0064142D02*
X0099000Y0064142D01*
X0099000Y0065740D02*
X0093940Y0065740D01*
X0094000Y0067339D02*
X0099000Y0067339D01*
X0099000Y0068937D02*
X0093494Y0068937D01*
X0092169Y0070536D02*
X0099000Y0070536D01*
X0086800Y0092915D02*
X0086800Y0092915D01*
X0086800Y0094514D02*
X0086800Y0094514D01*
X0086800Y0096112D02*
X0086800Y0096112D01*
X0086800Y0097711D02*
X0086800Y0097711D01*
X0086800Y0099309D02*
X0086800Y0099309D01*
X0086800Y0100908D02*
X0086800Y0100908D01*
X0093210Y0104105D02*
X0094426Y0104105D01*
X0094000Y0113696D02*
X0092801Y0113696D01*
X0093755Y0115294D02*
X0094000Y0115294D01*
X0094000Y0116893D02*
X0094000Y0116893D01*
X0094000Y0118491D02*
X0093678Y0118491D01*
X0094000Y0120090D02*
X0092616Y0120090D01*
X0091952Y0132878D02*
X0094000Y0132878D01*
X0094000Y0134476D02*
X0093417Y0134476D01*
X0094000Y0136075D02*
X0094000Y0136075D01*
X0094000Y0137673D02*
X0094000Y0137673D01*
X0094000Y0139272D02*
X0093355Y0139272D01*
X0094000Y0140870D02*
X0091593Y0140870D01*
X0090964Y0142469D02*
X0094000Y0142469D01*
X0094000Y0144068D02*
X0093173Y0144068D01*
X0093909Y0145666D02*
X0094000Y0145666D01*
X0094000Y0147265D02*
X0094000Y0147265D01*
X0094000Y0148863D02*
X0093524Y0148863D01*
X0094000Y0150462D02*
X0092244Y0150462D01*
X0080836Y0153659D02*
X0033901Y0153659D01*
X0032303Y0155257D02*
X0079860Y0155257D01*
X0079600Y0156856D02*
X0030704Y0156856D01*
X0029106Y0158454D02*
X0079906Y0158454D01*
X0080947Y0160053D02*
X0011608Y0160053D01*
X0031600Y0163250D02*
X0032000Y0163250D01*
X0032000Y0164848D02*
X0031600Y0164848D01*
X0031600Y0166447D02*
X0032000Y0166447D01*
X0032000Y0168045D02*
X0031600Y0168045D01*
X0031600Y0169644D02*
X0032000Y0169644D01*
X0032000Y0171242D02*
X0031600Y0171242D01*
X0035650Y0182432D02*
X0058238Y0182432D01*
X0058217Y0182447D02*
X0058917Y0181938D01*
X0059689Y0181545D01*
X0060512Y0181278D01*
X0061367Y0181143D01*
X0061600Y0181143D01*
X0061600Y0186442D01*
X0056300Y0186442D01*
X0056300Y0186210D01*
X0056435Y0185355D01*
X0056703Y0184531D01*
X0057096Y0183760D01*
X0057605Y0183060D01*
X0058217Y0182447D01*
X0056958Y0184030D02*
X0036888Y0184030D01*
X0037500Y0185629D02*
X0056392Y0185629D01*
X0056324Y0187227D02*
X0037500Y0187227D01*
X0037065Y0188826D02*
X0056740Y0188826D01*
X0057804Y0190424D02*
X0036079Y0190424D01*
X0061600Y0190424D02*
X0062000Y0190424D01*
X0062000Y0188826D02*
X0061600Y0188826D01*
X0061600Y0187227D02*
X0062000Y0187227D01*
X0062000Y0185629D02*
X0061600Y0185629D01*
X0061600Y0184030D02*
X0062000Y0184030D01*
X0062000Y0182432D02*
X0061600Y0182432D01*
X0065362Y0182432D02*
X0079000Y0182432D01*
X0078064Y0184030D02*
X0066642Y0184030D01*
X0067208Y0185629D02*
X0077200Y0185629D01*
X0077200Y0187227D02*
X0067276Y0187227D01*
X0066860Y0188826D02*
X0077320Y0188826D01*
X0078919Y0190424D02*
X0065796Y0190424D01*
X0081800Y0186800D02*
X0081800Y0171800D01*
X0086800Y0166800D01*
X0086280Y0188826D02*
X0117320Y0188826D01*
X0118919Y0190424D02*
X0084681Y0190424D01*
X0122481Y0153659D02*
X0123719Y0153659D01*
X0134300Y0110499D02*
X0134300Y0110499D01*
X0134300Y0108900D02*
X0134300Y0108900D01*
X0134300Y0107302D02*
X0134300Y0107302D01*
X0122400Y0006596D02*
X0003800Y0006596D01*
X0003800Y0008194D02*
X0004183Y0008194D01*
X0003800Y0004997D02*
X0122400Y0004997D01*
D19*
X0136800Y0036800D03*
X0136800Y0046800D03*
X0096800Y0106800D03*
X0096800Y0156800D03*
M02*
