G75*
%MOIN*%
%OFA0B0*%
%FSLAX25Y25*%
%IPPOS*%
%LPD*%
%AMOC8*
5,1,8,0,0,1.08239X$1,22.5*
%
%ADD10C,0.00000*%
%ADD11OC8,0.05200*%
%ADD12C,0.05200*%
%ADD13C,0.05150*%
%ADD14C,0.11220*%
%ADD15C,0.07400*%
%ADD16C,0.05200*%
%ADD17C,0.05937*%
%ADD18C,0.01600*%
%ADD19C,0.03169*%
D10*
X0001800Y0001800D02*
X0001800Y0198650D01*
X0198650Y0198650D01*
X0198650Y0001800D01*
X0001800Y0001800D01*
D11*
X0006800Y0011800D03*
X0006800Y0029300D03*
X0046800Y0029300D03*
X0056800Y0029300D03*
X0066800Y0029300D03*
X0066800Y0011800D03*
X0056800Y0011800D03*
X0046800Y0011800D03*
X0056800Y0046800D03*
X0066800Y0046800D03*
X0046800Y0056800D03*
X0046800Y0096800D03*
X0096800Y0024300D03*
X0106800Y0024300D03*
X0106800Y0011800D03*
X0096800Y0011800D03*
X0126800Y0006800D03*
X0144300Y0011800D03*
X0151800Y0016800D03*
X0144300Y0021800D03*
X0134300Y0106800D03*
X0126800Y0156800D03*
X0126800Y0166800D03*
X0121800Y0186800D03*
X0081800Y0186800D03*
D12*
X0134300Y0086800D03*
X0126800Y0026800D03*
D13*
X0161721Y0038001D03*
X0166446Y0041150D03*
X0161721Y0044300D03*
X0166446Y0047450D03*
X0161721Y0050599D03*
X0168926Y0011800D03*
X0176800Y0011800D03*
X0184674Y0011800D03*
D14*
X0181800Y0029930D03*
X0181800Y0058670D03*
D15*
X0193800Y0066800D03*
X0193800Y0076800D03*
X0193800Y0086800D03*
X0193800Y0096800D03*
X0193800Y0106800D03*
X0193800Y0116800D03*
X0193800Y0126800D03*
X0193800Y0136800D03*
X0074300Y0094300D03*
X0074300Y0084300D03*
X0074300Y0074300D03*
X0006800Y0076800D03*
X0006800Y0066800D03*
X0006800Y0086800D03*
X0006800Y0096800D03*
X0006800Y0106800D03*
X0006800Y0116800D03*
X0006800Y0126800D03*
X0006800Y0136800D03*
X0006800Y0146800D03*
X0006800Y0156800D03*
X0006800Y0166800D03*
X0006800Y0176800D03*
X0006800Y0186800D03*
X0031800Y0186643D03*
X0031800Y0166957D03*
X0061800Y0166957D03*
X0061800Y0186643D03*
D16*
X0084200Y0166800D02*
X0089400Y0166800D01*
X0089400Y0156800D02*
X0084200Y0156800D01*
X0084200Y0146800D02*
X0089400Y0146800D01*
X0089400Y0136800D02*
X0084200Y0136800D01*
X0084200Y0126800D02*
X0089400Y0126800D01*
X0089400Y0116800D02*
X0084200Y0116800D01*
X0084200Y0106800D02*
X0089400Y0106800D01*
X0089400Y0096800D02*
X0084200Y0096800D01*
X0084200Y0086800D02*
X0089400Y0086800D01*
X0089400Y0076800D02*
X0084200Y0076800D01*
X0084200Y0066800D02*
X0089400Y0066800D01*
X0089400Y0056800D02*
X0084200Y0056800D01*
X0084200Y0046800D02*
X0089400Y0046800D01*
X0089400Y0036800D02*
X0084200Y0036800D01*
X0114200Y0036800D02*
X0119400Y0036800D01*
X0119400Y0046800D02*
X0114200Y0046800D01*
X0114200Y0056800D02*
X0119400Y0056800D01*
X0119400Y0066800D02*
X0114200Y0066800D01*
X0114200Y0076800D02*
X0119400Y0076800D01*
X0119400Y0086800D02*
X0114200Y0086800D01*
X0114200Y0096800D02*
X0119400Y0096800D01*
X0119400Y0106800D02*
X0114200Y0106800D01*
X0114200Y0116800D02*
X0119400Y0116800D01*
X0119400Y0126800D02*
X0114200Y0126800D01*
X0114200Y0136800D02*
X0119400Y0136800D01*
X0119400Y0146800D02*
X0114200Y0146800D01*
X0114200Y0156800D02*
X0119400Y0156800D01*
X0119400Y0166800D02*
X0114200Y0166800D01*
D17*
X0161052Y0011800D03*
X0192548Y0011800D03*
D18*
X0168926Y0011800D02*
X0163926Y0016800D01*
X0151800Y0016800D01*
X0151800Y0021800D01*
X0136800Y0036800D01*
X0116800Y0036800D01*
X0109300Y0036800D01*
X0096800Y0024300D01*
X0104300Y0019300D02*
X0114300Y0019300D01*
X0121800Y0026800D01*
X0126800Y0026800D01*
X0126800Y0046800D02*
X0116800Y0046800D01*
X0116800Y0056800D02*
X0126800Y0056800D01*
X0166800Y0096800D01*
X0193800Y0096800D01*
X0193800Y0086800D02*
X0166800Y0086800D01*
X0126800Y0046800D01*
X0136800Y0046800D02*
X0166800Y0076800D01*
X0193800Y0076800D01*
X0165896Y0052328D02*
X0165896Y0047999D01*
X0166446Y0047450D01*
X0165896Y0052328D02*
X0163451Y0054774D01*
X0159992Y0054774D01*
X0147018Y0041800D01*
X0091800Y0041800D01*
X0086800Y0036800D01*
X0086800Y0046800D02*
X0066800Y0046800D01*
X0056800Y0056800D01*
X0046800Y0056800D01*
X0026800Y0076800D01*
X0006800Y0076800D01*
X0006800Y0096800D02*
X0046800Y0096800D01*
X0051800Y0101800D01*
X0091800Y0101800D01*
X0096800Y0106800D01*
X0086800Y0106800D02*
X0006800Y0106800D01*
X0006800Y0116800D02*
X0086800Y0116800D01*
X0074300Y0094300D02*
X0081800Y0086800D01*
X0086800Y0086800D01*
X0086800Y0076800D02*
X0081800Y0076800D01*
X0079300Y0074300D01*
X0074300Y0074300D01*
X0116800Y0066800D02*
X0126800Y0066800D01*
X0166800Y0106800D01*
X0193800Y0106800D01*
X0193800Y0116800D02*
X0186800Y0116800D01*
X0176800Y0126800D01*
X0116800Y0126800D01*
X0116800Y0136800D02*
X0176800Y0136800D01*
X0186800Y0126800D01*
X0193800Y0126800D01*
X0193800Y0136800D02*
X0186800Y0136800D01*
X0176800Y0146800D01*
X0116800Y0146800D01*
X0116800Y0166800D02*
X0126800Y0166800D01*
X0121800Y0186800D02*
X0101800Y0186800D01*
X0091800Y0176800D01*
X0006800Y0176800D01*
X0006800Y0186800D02*
X0026643Y0186800D01*
X0031800Y0186643D01*
X0041643Y0186643D01*
X0048850Y0193850D01*
X0074750Y0193850D01*
X0081800Y0186800D01*
X0061800Y0166957D02*
X0066800Y0161800D01*
X0091800Y0161800D01*
X0096800Y0156800D01*
X0086800Y0156800D02*
X0036800Y0156800D01*
X0016800Y0136800D01*
X0006800Y0136800D01*
X0006800Y0126800D02*
X0021800Y0126800D01*
X0041800Y0146800D01*
X0086800Y0146800D01*
X0116800Y0086800D02*
X0134300Y0086800D01*
X0104300Y0019300D02*
X0096800Y0011800D01*
X0066800Y0011800D01*
X0056800Y0011800D02*
X0046800Y0011800D01*
X0046800Y0029300D02*
X0056800Y0029300D01*
D19*
X0096800Y0106800D03*
X0096800Y0156800D03*
X0136800Y0046800D03*
X0136800Y0036800D03*
M02*
