%
M48
M72
T01C0.01969
T02C0.03150
T03C0.03200
T04C0.03937
T05C0.04000
T06C0.07480
%
T01
X96800Y106800
X96800Y156800
X136800Y46800
X136800Y36800
T02
X161721Y38001
X166446Y41150
X161721Y44300
X166446Y47450
X161721Y50599
X168926Y11800
X176800Y11800
X184674Y11800
T03
X6800Y11800
X6800Y29300
X46800Y29300
X56800Y29300
X66800Y29300
X66800Y11800
X56800Y11800
X46800Y11800
X56800Y46800
X66800Y46800
X86800Y46800
X86800Y36800
X96800Y24300
X106800Y24300
X116800Y36800
X116800Y46800
X116800Y56800
X116800Y66800
X116800Y76800
X116800Y86800
X116800Y96800
X116800Y106800
X116800Y116800
X116800Y126800
X116800Y136800
X116800Y146800
X116800Y156800
X116800Y166800
X126800Y166800
X126800Y156800
X121800Y186800
X86800Y166800
X86800Y156800
X86800Y146800
X86800Y136800
X86800Y126800
X86800Y116800
X86800Y106800
X86800Y96800
X86800Y86800
X86800Y76800
X86800Y66800
X86800Y56800
X46800Y56800
X46800Y96800
X126800Y26800
X144300Y21800
X151800Y16800
X144300Y11800
X126800Y6800
X106800Y11800
X96800Y11800
X134300Y86800
X134300Y106800
X81800Y186800
T04
X161052Y11800
X192548Y11800
T05
X6800Y66800
X6800Y76800
X6800Y86800
X6800Y96800
X6800Y106800
X6800Y116800
X6800Y126800
X6800Y136800
X6800Y146800
X6800Y156800
X6800Y166800
X6800Y176800
X6800Y186800
X31800Y186643
X31800Y166957
X61800Y166957
X61800Y186643
X74300Y94300
X74300Y84300
X74300Y74300
X193800Y76800
X193800Y66800
X193800Y86800
X193800Y96800
X193800Y106800
X193800Y116800
X193800Y126800
X193800Y136800
T06
X181800Y58670
X181800Y29930
M30
